<svg width="60" height="60" viewBox="0 0 60 60" fill="none" xmlns="http://www.w3.org/2000/svg">
<rect width="60" height="60" fill="#272828"/>
<g clip-path="url(#clip0_672_2020)">
<path d="M29.9829 50C16.9741 50 9.51318 42.697 9.51318 29.9663C9.51318 17.2357 16.9741 10 29.9829 10C42.9918 10 50.4888 17.2782 50.4888 29.9663C50.4888 42.6544 43.0134 50 29.9829 50ZM29.9829 12.1271C18.1761 12.1271 11.6789 18.4623 11.6789 29.9663C11.6789 41.4704 18.1761 47.8729 29.9829 47.8729C41.7898 47.8729 48.3231 41.5129 48.3231 29.9663C48.3231 18.4197 41.8114 12.1271 29.9829 12.1271Z" fill="#F2F3F1"/>
<path d="M23.7021 21.0996H31.0728C35.1516 21.0996 37.1152 22.7304 37.1152 25.6374C37.1152 27.6865 36.2092 29.1081 34.4261 29.7923V29.8526C36.9023 30.3844 38.0357 31.7812 38.0357 34.1068C38.0357 36.8366 36.1912 38.914 31.8994 38.914H23.7021V21.0996ZM26.4779 23.4713V28.9025H30.9826C33.0364 28.9025 34.3648 28.1297 34.3648 26.0664C34.3648 24.4037 33.3685 23.4536 31.1342 23.4536L26.4779 23.4713ZM26.4779 31.0367V36.5281H31.7659C34.1518 36.5281 35.2094 35.3121 35.2094 33.7984C35.2094 32.1357 34.1265 31.0367 31.6468 31.0367H26.4779Z" fill="#F2F3F1"/>
</g>
<defs>
<clipPath id="clip0_672_2020">
<rect width="40.9756" height="40" fill="white" transform="translate(9.51221 10)"/>
</clipPath>
</defs>
</svg>
