<svg width="75" height="45" viewBox="0 0 75 45" fill="none" xmlns="http://www.w3.org/2000/svg">
<path d="M59.3033 0.661133H15.6963V44.2682H59.3033V0.661133Z" fill="#1D1916"/>
<path d="M23.8633 15.3447L22.9868 18.0979L20.0996 18.1288L22.4403 19.7993L21.5948 22.4905L23.8633 20.8407L26.173 22.4596L25.2863 19.7683L27.596 18.0566L24.7604 18.0979L23.8633 15.3447Z" fill="white"/>
<path d="M32.9478 15.3447L32.0713 18.0979L29.1841 18.1288L31.5248 19.7993L30.6792 22.4905L32.9478 20.8407L35.2472 22.4596L34.3707 19.7683L36.6805 18.0566L33.8345 18.0979L32.9478 15.3447Z" fill="white"/>
<path d="M42.063 15.3447L41.1865 18.0979L38.2993 18.1288L40.64 19.7993L39.7945 22.4905L42.063 20.8407L44.3727 22.4596L43.486 19.7683L45.7957 18.0566L42.9704 18.0979L42.063 15.3447Z" fill="white"/>
<path d="M37.4746 21.6143L36.5981 24.3674L33.7109 24.3983L36.0516 26.0688L35.2061 28.7601L37.4746 27.1102L39.7844 28.7291L38.9079 26.0379L41.2073 24.3365L38.3717 24.3674L37.4746 21.6143Z" fill="white"/>
<path d="M28.3799 21.6143L27.5034 24.3674L24.6162 24.3983L26.9569 26.0688L26.1114 28.7601L28.3799 27.1102L30.6793 28.7291L29.8029 26.0379L32.1023 24.3365L29.277 24.3674L28.3799 21.6143Z" fill="white"/>
<path d="M46.6104 21.6143L45.7339 24.3674L42.8467 24.3983L45.1874 26.0688L44.3418 28.7601L46.6104 27.1102L48.9201 28.7291L48.0333 26.0379L50.3431 24.3365L47.5178 24.3674L46.6104 21.6143Z" fill="white"/>
<path d="M51.1782 15.3447L50.2914 18.0979L47.4146 18.1288L49.7552 19.7993L48.9097 22.4905L51.1782 20.8407L53.4777 22.4596L52.6012 19.7683L54.9006 18.0566L52.0753 18.0979L51.1782 15.3447Z" fill="white"/>
</svg>
