<svg width="75" height="45" viewBox="0 0 75 45" fill="none" xmlns="http://www.w3.org/2000/svg">
<path d="M23.3594 13.3894L36.7019 0.046875C29.511 0.440476 23.753 6.19849 23.3594 13.3894Z" fill="#1D1916"/>
<path d="M50.772 13.3167C50.772 13.2586 50.7678 13.2047 50.7678 13.1466H40.0784L37.656 10.7242H50.5148C50.2783 9.52959 49.8801 8.39304 49.3492 7.33945H37.9215L40.3397 4.91702H47.773C46.653 3.54403 45.2593 2.40333 43.683 1.57373C43.654 1.55714 43.6249 1.54471 43.5959 1.52811C42.5257 0.972275 41.3726 0.557468 40.1572 0.308594L24.4902 15.9756C24.6188 16.6061 24.7889 17.2158 25.0046 17.809C25.212 18.3939 25.465 18.958 25.7512 19.5055C27.8418 23.4669 31.8778 26.2377 36.5899 26.5571L27.6427 17.614L29.4761 15.7806L40.0369 26.3456C41.2938 26.1008 42.4884 25.6819 43.5918 25.1095L31.8695 13.3872L33.6988 11.558L45.8068 23.666C46.6903 22.9567 47.4826 22.1354 48.1587 21.227L43.4632 16.5314H50.3779C50.6351 15.5027 50.772 14.4284 50.772 13.3167" fill="#1D1916"/>
<path d="M4.80957 34.0388C4.80957 33.3937 4.92245 32.8077 5.15092 32.2835C5.37941 31.7594 5.69122 31.3105 6.08365 30.9395C6.47879 30.5659 6.94382 30.281 7.48141 30.0794C8.01632 29.8778 8.58885 29.7783 9.19637 29.7783C9.81728 29.7783 10.4059 29.8778 10.9624 30.0794C11.5161 30.281 11.9784 30.5525 12.352 30.8939L10.6882 32.8991C10.535 32.7029 10.3468 32.5524 10.1183 32.4502C9.88986 32.3455 9.63449 32.2943 9.35495 32.2943C9.12645 32.2943 8.91411 32.3347 8.71789 32.4153C8.51898 32.4958 8.34694 32.6115 8.19911 32.762C8.05125 32.9152 7.93568 33.098 7.84966 33.3158C7.76633 33.5308 7.72601 33.7727 7.72601 34.0388C7.72601 34.3049 7.76902 34.5415 7.85505 34.7511C7.94376 34.9608 8.06202 35.1409 8.20986 35.2914C8.35771 35.4447 8.52975 35.5602 8.72865 35.6409C8.92488 35.7189 9.13453 35.7591 9.35495 35.7591C9.66675 35.7591 9.93556 35.6945 10.1586 35.5656C10.3818 35.4366 10.5592 35.286 10.6882 35.1086L12.352 37.1031C11.9865 37.4687 11.5403 37.759 11.0081 37.9767C10.4758 38.1917 9.87105 38.2993 9.19634 38.2993C8.58887 38.2993 8.01633 38.1971 7.48142 37.9928C6.94382 37.7886 6.4788 37.4982 6.08367 37.1219C5.69121 36.7456 5.37941 36.2967 5.15094 35.7752C4.92244 35.2565 4.80957 34.6758 4.80957 34.0388Z" fill="#1D1916"/>
<path d="M16.7011 33.9928C16.7011 34.2589 16.7414 34.5009 16.8194 34.7213C16.9 34.9417 17.0102 35.1325 17.15 35.2911C17.2925 35.4524 17.4591 35.5761 17.658 35.6621C17.8543 35.7508 18.0693 35.7937 18.2978 35.7937C18.5236 35.7937 18.7359 35.7508 18.9295 35.6621C19.123 35.5761 19.2896 35.4524 19.4348 35.2911C19.5799 35.1325 19.6929 34.9417 19.7708 34.7213C19.8514 34.5009 19.8918 34.2589 19.8918 33.9928C19.8918 33.7348 19.8514 33.4982 19.7708 33.2805C19.6929 33.0655 19.58 32.8827 19.4348 32.7348C19.2896 32.5843 19.123 32.4687 18.9295 32.3854C18.7359 32.3021 18.5236 32.2617 18.2978 32.2617C18.0693 32.2617 17.8543 32.3021 17.658 32.3854C17.4591 32.4687 17.2925 32.5843 17.15 32.7348C17.0102 32.8827 16.9 33.0655 16.8194 33.2805C16.7414 33.4982 16.7011 33.7348 16.7011 33.9928ZM13.8169 33.9928C13.8169 33.3477 13.9325 32.7644 14.161 32.2429C14.3868 31.7242 14.7013 31.2806 15.0991 30.9151C15.4996 30.5522 15.9727 30.27 16.5183 30.0737C17.0667 29.8748 17.6581 29.7754 18.2978 29.7754C18.9349 29.7754 19.5262 29.8749 20.0745 30.0737C20.6202 30.27 21.096 30.5522 21.4992 30.9151C21.8997 31.2806 22.2169 31.7242 22.4427 32.2429C22.6712 32.7644 22.7867 33.3477 22.7867 33.9928C22.7867 34.638 22.6711 35.2266 22.4427 35.7588C22.2169 36.2911 21.8997 36.7453 21.4992 37.1216C21.096 37.4979 20.6202 37.7883 20.0745 37.9926C19.5262 38.1969 18.9348 38.3017 18.2978 38.3017C17.658 38.3017 17.0667 38.1969 16.5183 37.9926C15.9727 37.7883 15.4996 37.4979 15.0991 37.1216C14.7013 36.7453 14.3868 36.2911 14.161 35.7588C13.9325 35.2266 13.8169 34.638 13.8169 33.9928" fill="#1D1916"/>
<path d="M27.456 33.4123H27.9882C28.0796 33.4123 28.179 33.4045 28.2893 33.3881C28.3968 33.3744 28.4989 33.3424 28.593 33.2913C28.6871 33.243 28.7677 33.1756 28.8295 33.087C28.8968 32.9983 28.9263 32.8828 28.9263 32.7403C28.9263 32.5952 28.9021 32.4822 28.8484 32.3962C28.7946 32.3157 28.7274 32.2511 28.6441 32.2107C28.5607 32.1676 28.472 32.1409 28.3726 32.1302C28.2758 32.1185 28.1844 32.1107 28.1011 32.1107H27.456V33.4123ZM24.8486 30.0039H28.3242C28.7167 30.0039 29.1118 30.0443 29.5042 30.1248C29.894 30.2054 30.2434 30.3453 30.5498 30.5469C30.859 30.7485 31.109 31.0172 31.2971 31.3559C31.488 31.6946 31.582 32.1167 31.582 32.6247C31.582 33.1193 31.4611 33.5547 31.2192 33.931C30.9772 34.3073 30.6278 34.5977 30.1735 34.802L32.2218 38.0732H29.1064L27.5608 35.189H27.4802V38.0732H24.8486V30.0039Z" fill="#1D1916"/>
<path d="M38.4737 38.0732H35.7616V32.2941H33.7778V30.0039H40.4575V32.2941H38.4737V38.0732Z" fill="#1D1916"/>
<path d="M42.8931 30.0039H48.4411V32.2618H45.444V32.9553H48.2583V35.0627H45.444V35.8153H48.6346V38.0732H42.8931L42.8931 30.0039Z" fill="#1D1916"/>
<path d="M50.4326 30.0039H53.4996L54.8329 34.9955H54.8785L56.1553 30.0039H59.2196L56.3032 38.0732H53.2926L50.4326 30.0039Z" fill="#1D1916"/>
<path d="M63.886 32.8182L63.2247 34.8127H64.5365L63.886 32.8182ZM62.4829 30.0039H65.3671L68.512 38.0732H65.5606L65.1386 36.8878H62.5769L62.1764 38.0732H59.3057L62.4829 30.0039Z" fill="#1D1916"/>
<path d="M68.1978 30.2539V31.2135H67.9049V30.2539H67.5635V30.0039H68.5392V30.2539H68.1978Z" fill="#1D1916"/>
<path d="M69.9022 31.2135L69.9103 30.3587H69.9047L69.5903 31.2135H69.386L69.0795 30.3587H69.0768L69.0823 31.2135H68.8081V30.0039H69.2221L69.4989 30.7781H69.5044L69.7678 30.0039H70.1899V31.2135L69.9022 31.2135Z" fill="#1D1916"/>
<path d="M7.52463 42.3336C7.52463 41.8095 7.14293 41.4332 6.6349 41.4332C6.12687 41.4332 5.74519 41.8095 5.74519 42.3336C5.74519 42.8578 6.12687 43.2368 6.6349 43.2368C7.14293 43.2368 7.52463 42.8578 7.52463 42.3336ZM8.13481 40.9251V43.7421H7.52463V43.3363C7.31229 43.6373 6.97897 43.8147 6.53813 43.8147C5.77206 43.8147 5.1377 43.1669 5.1377 42.3336C5.1377 41.495 5.77206 40.8525 6.53813 40.8525C6.97897 40.8525 7.31229 41.0326 7.52463 41.3256V40.9251H8.13481Z" fill="#1D1916"/>
<path d="M11.312 42.3067C11.312 41.7987 10.9276 41.4224 10.4169 41.4224C9.90349 41.4224 9.51911 41.7987 9.51911 42.3067C9.51911 42.8121 9.9035 43.1911 10.4169 43.1911C10.9276 43.1911 11.312 42.8121 11.312 42.3067ZM11.9087 40.9251V43.6131C11.9087 44.519 11.1991 44.9437 10.4599 44.9437C9.84167 44.9437 9.36321 44.7125 9.12666 44.2609L9.65082 43.9572C9.77447 44.1991 9.98145 44.3899 10.4734 44.3899C10.9975 44.3899 11.312 44.1023 11.312 43.6131V43.2691C11.097 43.5728 10.7663 43.761 10.3309 43.761C9.53793 43.761 8.91162 43.1105 8.91162 42.3067C8.91162 41.5003 9.53793 40.8525 10.3309 40.8525C10.7663 40.8525 11.097 41.038 11.312 41.3418V40.9251H11.9087Z" fill="#1D1916"/>
<path d="M14.3195 40.874V41.5353C13.9189 41.5056 13.4512 41.6911 13.4512 42.3229V43.7421H12.8438V40.9251H13.4512V41.3982C13.6206 41.0165 13.9646 40.874 14.3194 40.874" fill="#1D1916"/>
<path d="M14.9972 40.9254H15.6046V43.7424H14.9972V40.9254ZM14.9111 40.1136C14.9111 39.9013 15.0858 39.7266 15.3009 39.7266C15.5159 39.7266 15.688 39.9013 15.688 40.1136C15.688 40.3233 15.5159 40.5034 15.3009 40.5034C15.0858 40.5034 14.9111 40.3234 14.9111 40.1136Z" fill="#1D1916"/>
<path d="M18.5802 42.9492C18.5802 43.511 18.0883 43.8147 17.4808 43.8147C16.9163 43.8147 16.5131 43.562 16.333 43.1562L16.8545 42.8524C16.9459 43.1051 17.1717 43.2583 17.4808 43.2583C17.7496 43.2583 17.9593 43.1668 17.9593 42.9438C17.9593 42.4411 16.4459 42.7234 16.4459 41.7154C16.4459 41.1859 16.9002 40.8525 17.4754 40.8525C17.9377 40.8525 18.3194 41.0676 18.5184 41.4385L18.005 41.7261C17.9028 41.5057 17.7066 41.4063 17.4754 41.4063C17.255 41.4063 17.0641 41.5003 17.0641 41.7046C17.0641 42.2154 18.5802 41.9062 18.5802 42.9492" fill="#1D1916"/>
<path d="M19.1099 42.3336C19.1099 41.495 19.7469 40.8525 20.5963 40.8525C21.1474 40.8525 21.6285 41.1402 21.8543 41.5783L21.3301 41.8847C21.2038 41.6186 20.9296 41.4493 20.5909 41.4493C20.0964 41.4493 19.7173 41.8283 19.7173 42.3336C19.7173 42.8417 20.0963 43.218 20.5909 43.218C20.9296 43.218 21.2038 43.0432 21.3409 42.7852L21.865 43.0836C21.6285 43.5271 21.1474 43.8147 20.5963 43.8147C19.7469 43.8147 19.1099 43.1669 19.1099 42.3336" fill="#1D1916"/>
<path d="M22.5289 40.9254H23.1391V43.7424H22.5289L22.5289 40.9254ZM22.4429 40.1136C22.4429 39.9013 22.6203 39.7266 22.8326 39.7266C23.0477 39.7266 23.2224 39.9013 23.2224 40.1136C23.2224 40.3233 23.0477 40.5034 22.8326 40.5034C22.6203 40.5034 22.4429 40.3234 22.4429 40.1136Z" fill="#1D1916"/>
<path d="M26.1976 42.0971C26.1116 41.6133 25.7568 41.4036 25.3913 41.4036C24.9343 41.4036 24.6252 41.6751 24.5391 42.0971H26.1976ZM25.4477 43.2583C25.7864 43.2583 26.039 43.1077 26.1734 42.9088L26.6761 43.2019C26.4181 43.5836 25.9933 43.8147 25.4423 43.8147C24.5123 43.8147 23.9102 43.1803 23.9102 42.3336C23.9102 41.5004 24.5123 40.8525 25.3966 40.8525C26.2353 40.8525 26.8105 41.5272 26.8105 42.339C26.8105 42.425 26.7998 42.5138 26.789 42.5944H24.5445C24.6413 43.0325 24.9961 43.2583 25.4477 43.2583" fill="#1D1916"/>
<path d="M30.1356 42.0138V43.7421H29.5254V42.0756C29.5254 41.6482 29.2782 41.4224 28.8965 41.4224C28.496 41.4224 28.1788 41.6589 28.1788 42.2342V43.7421H27.5713V40.9251H28.1788V41.2853C28.3642 40.9923 28.6707 40.8525 29.0524 40.8525C29.684 40.8525 30.1356 41.28 30.1356 42.0138" fill="#1D1916"/>
<path d="M30.856 42.3336C30.856 41.495 31.493 40.8525 32.3424 40.8525C32.8961 40.8525 33.3746 41.1402 33.6004 41.5783L33.0762 41.8847C32.9526 41.6186 32.6757 41.4493 32.337 41.4493C31.8424 41.4493 31.4634 41.8283 31.4634 42.3336C31.4634 42.8417 31.8424 43.218 32.337 43.218C32.6757 43.218 32.9526 43.0432 33.087 42.7852L33.6111 43.0836C33.3746 43.5271 32.8961 43.8147 32.3424 43.8147C31.493 43.8147 30.856 43.1669 30.856 42.3336" fill="#1D1916"/>
<path d="M36.3612 42.0971C36.2752 41.6133 35.9204 41.4036 35.5548 41.4036C35.0978 41.4036 34.7887 41.6751 34.7027 42.0971H36.3612ZM35.6112 43.2583C35.9499 43.2583 36.2026 43.1077 36.337 42.9088L36.8397 43.2019C36.5789 43.5836 36.1569 43.8147 35.6059 43.8147C34.6758 43.8147 34.0737 43.1803 34.0737 42.3336C34.0737 41.5004 34.6758 40.8525 35.5602 40.8525C36.3988 40.8525 36.9741 41.5272 36.9741 42.339C36.9741 42.425 36.9633 42.5138 36.9526 42.5944H34.7081C34.8049 43.0325 35.1597 43.2583 35.6113 43.2583" fill="#1D1916"/>
</svg>
