<svg width="75" height="45" viewBox="0 0 75 45" fill="none" xmlns="http://www.w3.org/2000/svg">
<path d="M60 0H15V45H60V0Z" fill="#1D1916"/>
<path d="M37.8061 39.838H38.1463C38.4411 39.838 38.5772 39.965 38.5772 40.1419C38.5772 40.287 38.4865 40.4503 38.1599 40.4503H37.8061V39.838V39.838ZM37.8061 39.0034H38.0647C38.3232 39.0034 38.4049 39.1304 38.4049 39.2755C38.4049 39.4842 38.2688 39.5885 37.9921 39.5885H37.8061V39.0034V39.0034ZM37.5249 40.7043H38.1962C38.6861 40.7043 38.8675 40.4231 38.8675 40.1827C38.8675 39.9196 38.6906 39.7291 38.3958 39.6747C38.5999 39.584 38.6951 39.4524 38.6951 39.2528C38.6951 39.0079 38.5137 38.7539 38.0964 38.7539H37.5294V40.7043H37.5249Z" fill="white"/>
<path d="M40.9723 38.7539H40.6911V39.8924C40.6911 40.0738 40.6684 40.219 40.5687 40.3188C40.4779 40.4095 40.3237 40.4775 40.1105 40.4775C39.9427 40.4775 39.8021 40.4231 39.6887 40.3097C39.6025 40.219 39.5708 40.1283 39.5708 39.9105V38.7584H39.2896V39.974C39.2896 40.5047 39.6887 40.7361 40.1015 40.7361C40.6821 40.7361 40.9678 40.4231 40.9678 39.9423V38.7584L40.9723 38.7539Z" fill="white"/>
<path d="M41.7929 38.9943H41.9744C42.2465 38.9943 42.3554 39.1077 42.3599 39.2891C42.3599 39.4524 42.2783 39.6066 41.9744 39.6066H41.7929V38.9943V38.9943ZM41.5117 38.7539V40.7043H41.7929V39.8561H41.9109C42.0515 39.8561 42.1694 39.9015 42.428 40.3006L42.6865 40.6998H43.0222C42.8861 40.5138 42.8407 40.4458 42.7545 40.3142C42.6049 40.0693 42.496 39.8924 42.3191 39.7745C42.5277 39.6928 42.6457 39.5205 42.6457 39.2982C42.6457 38.9626 42.4007 38.7539 42.0061 38.7539H41.5117V38.7539Z" fill="white"/>
<path d="M44.3558 38.8626C44.2197 38.7719 44.07 38.7266 43.9204 38.7266C43.562 38.7266 43.3262 38.9307 43.3262 39.2482C43.3262 39.7834 44.1698 39.8288 44.1698 40.2325C44.1698 40.3413 44.07 40.4774 43.8523 40.4774C43.6618 40.4774 43.4804 40.3776 43.3352 40.1962V40.55C43.4985 40.6724 43.6709 40.7314 43.8841 40.7314C44.1971 40.7314 44.4284 40.5091 44.4284 40.2007C44.4284 39.5793 43.5847 39.5838 43.5847 39.2119C43.5847 39.0758 43.7117 38.9806 43.8932 38.9806C44.0247 38.9806 44.1834 39.0259 44.3513 39.1847V38.8672L44.3558 38.8626Z" fill="white"/>
<path d="M45.6033 39.1711L45.9163 39.8787H45.3085L45.5988 39.1711H45.6033ZM45.7076 38.7402H45.5081L44.6689 40.7042H44.9547L45.1996 40.1282H46.0297L46.2882 40.7042H46.574L45.7031 38.7402H45.7076Z" fill="white"/>
<path d="M48.2384 38.7539H46.6055V39.0034H47.2813V40.7043H47.5625V39.0034H48.2384V38.7539Z" fill="white"/>
<path d="M48.9551 38.7539H48.6738V40.7043H48.9551V38.7539Z" fill="white"/>
<path d="M49.8349 38.7539H49.5537V40.7043H50.7194V40.4503H49.8349V38.7539Z" fill="white"/>
<path d="M52.2391 38.7539H51.1323V40.7043H52.2663V40.4503H51.4135V39.847H52.2119V39.593H51.4135V39.0034H52.2391V38.7539Z" fill="white"/>
<path d="M53.6634 38.8626C53.5273 38.7719 53.3777 38.7266 53.228 38.7266C52.8697 38.7266 52.6338 38.9307 52.6338 39.2482C52.6338 39.7834 53.4775 39.8288 53.4775 40.2325C53.4775 40.3413 53.3777 40.4774 53.1599 40.4774C52.9694 40.4774 52.788 40.3776 52.6429 40.1962V40.55C52.8061 40.6724 52.9785 40.7314 53.1872 40.7314C53.5001 40.7314 53.736 40.5091 53.736 40.2007C53.736 39.5793 52.8923 39.5838 52.8923 39.2119C52.8923 39.0758 53.0193 38.9806 53.2008 38.9806C53.3323 38.9806 53.4911 39.0259 53.6589 39.1847V38.8672L53.6634 38.8626Z" fill="white"/>
<path d="M37.711 36.5677H38.0557C38.4912 36.5677 38.6908 36.8354 38.6908 37.1483C38.6908 37.3388 38.5728 37.7289 38.0648 37.7289H37.7065V36.5723L37.711 36.5677ZM37.4888 37.9285H38.0966C38.6137 37.9285 38.9266 37.5475 38.9266 37.1483C38.9266 36.7809 38.6726 36.3682 38.0966 36.3682H37.4888V37.9285Z" fill="white"/>
<path d="M40.0105 36.3682H39.126V37.9285H40.0331V37.7244H39.3482V37.239H39.9878V37.0395H39.3482V36.5677H40.0105V36.3682Z" fill="white"/>
<path d="M41.9521 35.9785H40.8408V37.9289H41.9748V37.6749H41.122V37.0717H41.9203V36.8176H41.122V36.228H41.9521V35.9785Z" fill="white"/>
<path d="M43.2264 36.0872C43.0903 35.9965 42.9407 35.9512 42.791 35.9512C42.4326 35.9512 42.1968 36.1553 42.1968 36.4728C42.1968 37.008 43.0404 37.0534 43.0404 37.4571C43.0404 37.5659 42.9407 37.702 42.7229 37.702C42.5324 37.702 42.351 37.6022 42.2058 37.4162V37.77C42.3691 37.8925 42.5415 37.9515 42.7501 37.9515C43.0631 37.9515 43.299 37.7292 43.299 37.4208C43.299 36.7994 42.4553 36.8039 42.4553 36.432C42.4553 36.2959 42.5823 36.2006 42.7638 36.2006C42.8953 36.2006 43.0541 36.246 43.2219 36.4048V36.0872H43.2264Z" fill="white"/>
<path d="M45.0997 35.9785H43.4668V36.228H44.1426V37.9289H44.4239V36.228H45.0997V35.9785Z" fill="white"/>
<path d="M47.0275 35.9785H46.7463V37.117C46.7463 37.2984 46.7236 37.4436 46.6238 37.5434C46.5331 37.6341 46.3789 37.7021 46.1657 37.7021C45.9979 37.7021 45.8573 37.6477 45.7439 37.5343C45.6532 37.4436 45.6259 37.3529 45.6259 37.1352V35.9831H45.3447V37.1987C45.3447 37.7293 45.7439 37.9607 46.1566 37.9607C46.7372 37.9607 47.023 37.6477 47.023 37.1669V35.9831L47.0275 35.9785Z" fill="white"/>
<path d="M47.6987 36.228H48.1296C48.6784 36.228 48.9234 36.5591 48.9234 36.9537C48.9234 37.1941 48.7782 37.6795 48.1432 37.6795H47.6987V36.2325V36.228ZM47.4175 37.9289H48.1795C48.8236 37.9289 49.2137 37.4527 49.2137 36.9537C49.2137 36.4911 48.8962 35.9785 48.175 35.9785H47.4175V37.9289V37.9289Z" fill="white"/>
<path d="M49.894 35.9736H49.6128V37.9286H49.894V35.9736Z" fill="white"/>
<path d="M50.5335 36.9536C50.5335 36.5227 50.8555 36.2097 51.2909 36.2097C51.7264 36.2097 52.053 36.5227 52.053 36.9536C52.053 37.3845 51.7309 37.6975 51.2909 37.6975C50.851 37.6975 50.5335 37.38 50.5335 36.9536ZM50.2432 36.9536C50.2432 37.4843 50.6469 37.956 51.2864 37.956C51.926 37.956 52.3433 37.4797 52.3433 36.9536C52.3433 36.4274 51.935 35.9512 51.2909 35.9512C50.6469 35.9512 50.2432 36.4138 50.2432 36.9536Z" fill="white"/>
<path d="M53.6634 36.0872C53.5273 35.9965 53.3777 35.9512 53.228 35.9512C52.8697 35.9512 52.6338 36.1553 52.6338 36.4728C52.6338 37.008 53.4775 37.0534 53.4775 37.4571C53.4775 37.5659 53.3777 37.702 53.1599 37.702C52.9694 37.702 52.788 37.6022 52.6429 37.4162V37.77C52.8061 37.8925 52.9785 37.9515 53.1872 37.9515C53.5001 37.9515 53.736 37.7292 53.736 37.4208C53.736 36.7994 52.8923 36.8039 52.8923 36.432C52.8923 36.2959 53.0193 36.2006 53.2008 36.2006C53.3323 36.2006 53.4911 36.246 53.6589 36.4048V36.0872H53.6634Z" fill="white"/>
<path d="M37.8335 33.1973H37.5522V35.1477H37.8335V33.1973Z" fill="white"/>
<path d="M40.3371 33.1973H40.0741V34.7122L38.7496 33.1973H38.5273V35.1522H38.7904V33.6463L40.0967 35.1522H40.3371V33.1973Z" fill="white"/>
<path d="M41.9608 33.3119C41.8247 33.2211 41.675 33.1758 41.5253 33.1758C41.167 33.1758 40.9312 33.3799 40.9312 33.6974C40.9312 34.2326 41.7748 34.278 41.7748 34.6817C41.7748 34.7905 41.675 34.9266 41.4573 34.9266C41.2668 34.9266 41.0854 34.8268 40.9402 34.6454V34.9992C41.1035 35.1217 41.2759 35.1806 41.4845 35.1806C41.7975 35.1806 42.0334 34.9584 42.0334 34.6499C42.0334 34.0285 41.1897 34.0331 41.1897 33.6611C41.1897 33.525 41.3167 33.4298 41.4981 33.4298C41.6297 33.4298 41.7884 33.4751 41.9563 33.6339V33.3164L41.9608 33.3119Z" fill="white"/>
<path d="M44.0747 33.1973H42.4463V33.4513H43.1221V35.1522H43.4034V33.4513H44.0747V33.1973Z" fill="white"/>
<path d="M44.8911 33.1973H44.6099V35.1477H44.8911V33.1973Z" fill="white"/>
<path d="M47.0546 33.1973H45.4263V33.4513H46.0976V35.1522H46.3788V33.4513H47.0546V33.1973Z" fill="white"/>
<path d="M49.2272 33.1973H48.946V34.3358C48.946 34.5172 48.9233 34.6623 48.8235 34.7621C48.7328 34.8528 48.5786 34.9209 48.3654 34.9209C48.1976 34.9209 48.057 34.8665 47.9436 34.7531C47.8529 34.6623 47.8257 34.5716 47.8257 34.3539V33.2018H47.5444V34.4174C47.5444 34.9481 47.9436 35.1794 48.3563 35.1794C48.9369 35.1794 49.2227 34.8665 49.2227 34.3857V33.2018L49.2272 33.1973Z" fill="white"/>
<path d="M51.3458 33.1973H49.7129V33.4513H50.3887V35.1522H50.67V33.4513H51.3458V33.1973Z" fill="white"/>
<path d="M51.867 34.1723C51.867 33.7414 52.189 33.4285 52.6244 33.4285C53.0599 33.4285 53.3865 33.7414 53.3865 34.1723C53.3865 34.6032 53.0644 34.9162 52.6244 34.9162C52.1845 34.9162 51.867 34.5987 51.867 34.1723ZM51.5767 34.1723C51.5767 34.703 51.9804 35.1748 52.6199 35.1748C53.2595 35.1748 53.6767 34.6985 53.6767 34.1723C53.6767 33.6462 53.2685 33.1699 52.6244 33.1699C51.9803 33.1699 51.5767 33.6326 51.5767 34.1723Z" fill="white"/>
<path d="M20.6106 23.6315L26.2441 30.2447L22.0394 35.2341C21.3908 34.0866 20.6016 32.4537 20.6016 30.467C20.6016 28.376 20.6106 23.627 20.6106 23.627" fill="white"/>
<path d="M22.439 22.4072L27.6461 28.5669L32.8306 22.4072H22.439Z" fill="white"/>
<path d="M34.5541 23.6816L29.0249 30.2314L33.0935 35.0666L33.1933 35.1709C33.842 34.0233 34.5768 32.463 34.5768 30.4763C34.5768 28.3853 34.5541 23.6816 34.5541 23.6816" fill="white"/>
<path d="M31.9324 36.904C30.549 38.5687 27.8864 40.5554 27.6052 40.569C27.3467 40.5781 24.7113 38.6277 23.3188 36.9812L27.637 31.8965L31.9279 36.904H31.9324Z" fill="white"/>
<path d="M30.6172 30.0232C30.6172 29.0843 31.3293 28.3223 32.2093 28.3223C33.0892 28.3223 33.8013 29.0843 33.8013 30.0232C33.8013 30.9621 33.0892 31.7196 32.2093 31.7196C31.3293 31.7196 30.6172 30.9576 30.6172 30.0232Z" fill="#1D1916"/>
<path d="M30.6172 30.0232C30.6172 29.0843 31.3293 28.3223 32.2093 28.3223C33.0892 28.3223 33.8013 29.0843 33.8013 30.0232C33.8013 30.9621 33.0892 31.7196 32.2093 31.7196C31.3293 31.7196 30.6172 30.9576 30.6172 30.0232Z" stroke="#1D1916" stroke-width="0.0226792" stroke-miterlimit="3.86"/>
<path d="M33.0797 30.4082H31.3198V30.9162H33.0797V30.4082Z" fill="white"/>
<path d="M33.0801 30.177C33.0801 30.177 32.9531 29.9094 32.9531 29.805C32.9531 29.7007 32.9531 29.6962 32.9939 29.6735C33.0348 29.6508 33.0574 29.6463 33.1527 29.6735C33.1572 29.6735 33.1799 29.5692 33.2389 29.5147C33.2797 29.4785 33.4657 29.4648 33.4657 29.4648L33.0801 30.177Z" fill="white"/>
<path d="M32.2049 30.177C32.2049 30.177 31.91 29.9775 31.8465 29.8641C31.783 29.7461 31.783 29.7416 31.8102 29.6872C31.8375 29.6327 31.8647 29.6101 31.9871 29.5828C31.9917 29.5828 31.9554 29.4468 31.9871 29.3515C32.0098 29.288 32.2049 29.1338 32.2049 29.1338C32.2049 29.1338 32.409 29.288 32.4317 29.3515C32.4634 29.4468 32.4226 29.5828 32.4317 29.5828C32.5541 29.6146 32.5813 29.6373 32.6085 29.6872C32.6358 29.7416 32.6358 29.7507 32.5723 29.8641C32.5088 29.9775 32.2139 30.177 32.2139 30.177H32.2049Z" fill="white"/>
<path d="M31.3203 30.177C31.3203 30.177 31.4427 29.9094 31.4427 29.805C31.4427 29.7007 31.4427 29.6962 31.4019 29.6735C31.3611 29.6508 31.3384 29.6463 31.2431 29.6735C31.2386 29.6735 31.2159 29.5692 31.157 29.5147C31.1161 29.4785 30.9302 29.4648 30.9302 29.4648L31.3157 30.177" fill="white"/>
<path d="M26.0586 24.7517C26.0586 23.8128 26.7707 23.0508 27.6507 23.0508C28.5306 23.0508 29.2427 23.8128 29.2427 24.7517C29.2427 25.6906 28.5306 26.4481 27.6507 26.4481C26.7707 26.4481 26.0586 25.6861 26.0586 24.7517" fill="#1D1916"/>
<path d="M26.0586 24.7517C26.0586 23.8128 26.7707 23.0508 27.6507 23.0508C28.5306 23.0508 29.2427 23.8128 29.2427 24.7517C29.2427 25.6906 28.5306 26.4481 27.6507 26.4481C26.7707 26.4481 26.0586 25.6861 26.0586 24.7517V24.7517Z" stroke="#1D1916" stroke-width="0.0226792" stroke-miterlimit="3.86"/>
<path d="M28.5211 25.1377H26.7612V25.6457H28.5211V25.1377Z" fill="white"/>
<path d="M28.521 24.9058C28.521 24.9058 28.394 24.6382 28.394 24.5339C28.394 24.4296 28.394 24.425 28.4349 24.4024C28.4757 24.3797 28.4984 24.3751 28.5936 24.4069C28.5982 24.4069 28.6208 24.3026 28.6798 24.2481C28.7206 24.2118 28.9066 24.1982 28.9066 24.1982L28.521 24.9104" fill="white"/>
<path d="M27.6458 24.9016C27.6458 24.9016 27.3509 24.7021 27.2874 24.5887C27.2239 24.4707 27.2239 24.4662 27.2512 24.4118C27.2784 24.3573 27.3056 24.3347 27.4281 24.3074C27.4326 24.3074 27.3963 24.1714 27.4281 24.0761C27.4507 24.0081 27.6503 23.8584 27.6503 23.8584C27.6503 23.8584 27.8544 24.0126 27.8726 24.0761C27.9043 24.1714 27.8635 24.3074 27.8726 24.3074C27.995 24.3392 28.0177 24.3619 28.0495 24.4118C28.0767 24.4662 28.0767 24.4753 28.0132 24.5887C27.9497 24.7066 27.6549 24.9016 27.6549 24.9016H27.6458Z" fill="white"/>
<path d="M26.7612 24.9058C26.7612 24.9058 26.8836 24.6382 26.8836 24.5339C26.8836 24.4296 26.8836 24.425 26.8428 24.4024C26.802 24.3797 26.7793 24.3751 26.6841 24.4069C26.6795 24.4069 26.6569 24.3026 26.5979 24.2481C26.5571 24.2118 26.3711 24.1982 26.3711 24.1982L26.7566 24.9104" fill="white"/>
<path d="M21.4453 30.0177C21.4453 29.0788 22.1574 28.3213 23.0374 28.3213C23.9173 28.3213 24.6295 29.0833 24.6295 30.0177C24.6295 30.9521 23.9173 31.7186 23.0374 31.7186C22.1574 31.7186 21.4453 30.9566 21.4453 30.0177" fill="#1D1916"/>
<path d="M21.4453 30.0177C21.4453 29.0788 22.1574 28.3213 23.0374 28.3213C23.9173 28.3213 24.6295 29.0833 24.6295 30.0177C24.6295 30.9521 23.9173 31.7186 23.0374 31.7186C22.1574 31.7186 21.4453 30.9566 21.4453 30.0177V30.0177Z" stroke="#1D1916" stroke-width="0.0226792" stroke-miterlimit="3.86"/>
<path d="M23.9039 30.4043H22.144V30.9123H23.9039V30.4043Z" fill="white"/>
<path d="M23.9037 30.1727C23.9037 30.1727 23.7812 29.9051 23.7812 29.8008C23.7812 29.6965 23.7813 29.6919 23.8221 29.6647C23.8629 29.642 23.8856 29.6375 23.9808 29.6647C23.9854 29.6647 24.008 29.5604 24.067 29.5059C24.1078 29.4697 24.2938 29.4561 24.2938 29.4561L23.9083 30.1682" fill="white"/>
<path d="M23.0286 30.1721C23.0286 30.1721 22.7338 29.9726 22.6703 29.8592C22.6068 29.7412 22.6068 29.7367 22.634 29.6823C22.6612 29.6278 22.6884 29.6052 22.8109 29.578C22.8199 29.578 22.7791 29.4419 22.8109 29.3466C22.8336 29.2831 23.0331 29.1289 23.0331 29.1289C23.0331 29.1289 23.2372 29.2831 23.2554 29.3466C23.2871 29.4419 23.2463 29.578 23.2554 29.578C23.3779 29.6097 23.4051 29.6324 23.4323 29.6823C23.4595 29.7367 23.4595 29.7458 23.396 29.8592C23.3325 29.9726 23.0377 30.1721 23.0377 30.1721H23.0286Z" fill="white"/>
<path d="M22.1484 30.1727C22.1484 30.1727 22.2709 29.9051 22.2709 29.8008C22.2709 29.6965 22.2708 29.6919 22.23 29.6647C22.1892 29.642 22.1665 29.6375 22.0713 29.6647C22.0667 29.6647 22.0441 29.5604 21.9851 29.5059C21.9443 29.4697 21.7583 29.4561 21.7583 29.4561L22.1438 30.1682" fill="white"/>
<path d="M26.0537 35.7644C26.0537 34.8255 26.7658 34.0635 27.6458 34.0635C28.5257 34.0635 29.2379 34.8255 29.2379 35.7644C29.2379 36.7033 28.5257 37.4608 27.6458 37.4608C26.7658 37.4608 26.0537 36.6988 26.0537 35.7644" fill="#1D1916"/>
<path d="M26.0537 35.7644C26.0537 34.8255 26.7658 34.0635 27.6458 34.0635C28.5257 34.0635 29.2379 34.8255 29.2379 35.7644C29.2379 36.7033 28.5257 37.4608 27.6458 37.4608C26.7658 37.4608 26.0537 36.6988 26.0537 35.7644V35.7644Z" stroke="#1D1916" stroke-width="0.0226792" stroke-miterlimit="3.86"/>
<path d="M28.5123 36.1504H26.7524V36.6584H28.5123V36.1504Z" fill="white"/>
<path d="M28.5121 35.9192C28.5121 35.9192 28.3896 35.6515 28.3896 35.5472C28.3896 35.4429 28.3896 35.4384 28.4305 35.4111C28.4713 35.3885 28.494 35.3839 28.5892 35.4157C28.5938 35.4157 28.6164 35.3114 28.6754 35.2569C28.7162 35.2206 28.9022 35.207 28.9022 35.207L28.5167 35.9192" fill="white"/>
<path d="M27.6365 35.9143C27.6365 35.9143 27.3417 35.7148 27.2782 35.6014C27.2147 35.4834 27.2147 35.4789 27.2419 35.4245C27.2691 35.37 27.2963 35.3474 27.4188 35.3201C27.4279 35.3201 27.387 35.1841 27.4188 35.0888C27.4415 35.0253 27.641 34.8711 27.641 34.8711C27.641 34.8711 27.8452 35.0253 27.8633 35.0888C27.895 35.1841 27.8542 35.3201 27.8633 35.3201C27.9858 35.3519 28.013 35.3746 28.0402 35.4245C28.0674 35.4789 28.0719 35.488 28.0039 35.6014C27.9404 35.7148 27.6456 35.9143 27.6456 35.9143H27.6365Z" fill="white"/>
<path d="M26.7566 35.9192C26.7566 35.9192 26.8836 35.6515 26.8836 35.5472C26.8836 35.4429 26.8836 35.4384 26.8428 35.4111C26.802 35.3885 26.7793 35.3839 26.6841 35.4157C26.6795 35.4157 26.6569 35.3114 26.5979 35.2569C26.5571 35.2206 26.3711 35.207 26.3711 35.207L26.7566 35.9192" fill="white"/>
<path d="M38.8088 22.502H37.5479V31.2833H38.8088V22.502Z" fill="white"/>
<path d="M46.0884 22.502H41.1035V31.2833H46.2018V30.1494H42.3645V27.4188H45.9569V26.2894H42.3645V23.6359H46.0884V22.502Z" fill="white"/>
<path d="M47.7622 31.2833H50.774C52.9739 31.2833 53.7858 30.0224 53.7858 28.9383C53.7858 27.7544 52.9875 26.8926 51.6766 26.6477V26.6205C52.5929 26.2486 53.0147 25.6544 53.0147 24.7427C53.0147 23.6359 52.2028 22.502 50.3113 22.502H47.7622V31.2833Z" fill="white"/>
<path d="M49.0229 23.6357H50.1841C51.3408 23.6357 51.7172 24.2027 51.7172 24.8604C51.7172 25.7993 51.114 26.262 49.8621 26.262H49.0229V23.6357V23.6357Z" fill="#1D1916"/>
<path d="M49.0229 27.3965H50.5425C51.8669 27.3965 52.4883 27.9635 52.4883 28.7618C52.4883 29.4195 52.0892 30.1543 50.6105 30.1543H49.0275V27.401L49.0229 27.3965Z" fill="#1D1916"/>
</svg>
