<svg width="75" height="34" viewBox="0 0 75 34" fill="none" xmlns="http://www.w3.org/2000/svg">
<path d="M53.6445 11.4359C52.9219 10.9704 51.7737 10.5559 50.1821 10.5559C46.8504 10.5559 45.0372 12.9421 44.4021 15.9712C43.4977 20.286 45.4273 22.1225 47.7559 22.1225C48.8366 22.1225 49.2633 21.8255 49.2633 21.8255L50.0945 17.8122H47.5465L48.0763 15.2652H54.1765L52.3278 23.9579C52.3278 23.9579 50.5401 24.7592 47.4656 24.7592C42.6654 24.7592 39.5975 21.0031 40.6914 15.846C41.7787 10.7155 45.5049 7.90918 50.222 7.90918C51.5553 7.90918 53.2189 8.13417 54.3273 8.64179L53.6445 11.4359ZM33.2921 24.4179H36.9519L40.339 8.27604H36.6781L33.2921 24.4179ZM32.7923 11.4359C31.8923 11.0059 30.6222 10.5936 29.3786 10.5936C28.1073 10.5936 26.8516 10.8873 26.6078 12.153C26.3695 13.3888 27.48 14.1181 29.3332 15.1444C32.339 16.8091 32.6083 18.7399 32.227 20.5553C31.6086 23.5113 28.9064 24.7792 25.7178 24.7459C22.7441 24.7149 20.6726 23.6963 20.6726 23.6963L21.3775 20.8789C22.058 21.2879 23.8945 22.0948 25.8109 22.0948C27.5543 22.0948 28.3046 21.4409 28.5052 20.4799C28.7701 19.2164 28.1605 18.4096 26.4493 17.4564C24.1683 16.1862 22.3418 14.8041 22.8893 12.1907C23.5753 8.91333 26.6654 7.91029 29.2744 7.91029C30.7518 7.91029 32.2869 8.10425 33.5216 8.61852L32.7923 11.4359Z" fill="#1D1916" stroke="#1D1916" stroke-width="0.075367" stroke-miterlimit="3.864"/>
<path d="M63.4191 17.0006C63.4191 26.3195 51.8148 33.875 37.5006 33.875C23.1854 33.875 11.5811 26.3195 11.5811 17.0006C11.5811 7.68054 23.1854 0.125 37.5006 0.125C51.8148 0.125 63.4191 7.68054 63.4191 17.0006ZM37.5006 2.42702C24.3724 2.42702 13.7301 8.9518 13.7301 17.0006C13.7301 25.0482 24.3724 31.573 37.5006 31.573C50.6278 31.573 61.2701 25.0482 61.2701 17.0006C61.2701 8.9518 50.6278 2.42702 37.5006 2.42702Z" fill="#1D1916" stroke="#1D1916" stroke-width="0.075367" stroke-miterlimit="3.864"/>
</svg>
