<svg width="75" height="45" viewBox="0 0 75 45" fill="none" xmlns="http://www.w3.org/2000/svg">
<path d="M17.5099 33.5635C16.6036 33.5635 15.8665 34.2958 15.8665 35.2045V41.1255C15.8665 41.8143 15.313 42.3701 14.6218 42.3701C13.9307 42.3701 13.3796 41.8143 13.3796 41.1255V35.2045C13.3796 34.2958 12.6474 33.5635 11.7387 33.5635H10.1001V40.386C10.1001 44.3325 12.3356 44.9996 14.6218 44.9996C16.9081 44.9996 19.1484 44.3325 19.1484 40.386V33.5635H17.5099V33.5635Z" fill="#1D1916"/>
<path d="M61.4974 36.418C63.3365 36.418 65.311 37.114 64.7527 38.361L64.2501 39.2842C63.3075 38.5761 61.3693 38.0807 61.3693 38.9411C61.3693 39.3737 62.0218 39.5259 62.2877 39.5863C63.583 39.8836 64.9002 40.2896 64.9002 41.9862C64.9002 43.1583 64.2646 44.8863 61.2871 44.8863C59.6316 44.8863 57.2463 44.3522 58.2613 42.5517C58.4184 42.2762 58.6843 41.8243 58.6843 41.8243C58.6843 41.8243 59.3827 42.5734 60.9464 42.6532C61.7826 42.6943 62.1523 41.8774 61.1034 41.5512C60.2769 41.2974 58.1357 41.005 58.1357 39.0401C58.1357 37.0753 60.0232 36.418 61.4998 36.418" fill="#1D1916"/>
<path d="M36.5416 33.1865H35.0239V43.0179C35.0239 43.9846 35.807 44.7652 36.7737 44.7652H38.2938V34.9363C38.2938 33.9647 37.5083 33.1865 36.5416 33.1865Z" fill="#1D1916"/>
<path d="M31.6696 36.5869H30.1494V43.0179C30.1494 43.9846 30.9349 44.7676 31.9016 44.7676H33.4193V38.3391C33.4193 37.3699 32.6338 36.5869 31.6696 36.5869" fill="#1D1916"/>
<path d="M30.1421 34.1629C30.1421 33.2591 30.8792 32.5195 31.7855 32.5195C32.6918 32.5195 33.4313 33.2591 33.4313 34.1629C33.4313 35.0668 32.6942 35.8136 31.7855 35.8136C30.8768 35.8136 30.1421 35.0716 30.1421 34.1629Z" fill="#1D1916"/>
<path d="M44.1232 42.3197C44.1232 42.4985 44.0434 42.6314 43.8912 42.7209C43.7389 42.8079 43.5649 42.8514 43.3715 42.8514C42.8205 42.8514 42.6054 42.4985 42.6054 42.0973C42.6054 41.1572 43.5262 40.9325 44.1232 40.9325V42.3221V42.3197ZM46.3442 37.1792C45.798 36.6766 44.8893 36.418 43.6156 36.418C41.1892 36.418 40.3796 37.1865 40.2129 37.3992C39.9132 37.7762 40.0968 38.2378 40.1935 38.4094L40.6116 39.1586C42.5813 38.1387 44.07 38.3804 44.07 39.0957V39.451C40.8388 39.451 39.5869 40.7536 39.5869 42.3173C39.5869 44.8065 41.8345 44.821 42.1728 44.821C43.4247 44.821 43.9685 44.3594 44.3528 44.0404C44.3987 44.4488 44.7443 44.7654 45.1648 44.7654H47.1755V39.6033C47.1755 38.494 46.8976 37.6892 46.3417 37.1792" fill="#1D1916"/>
<path d="M52.5139 38.5711C52.3447 38.5711 52.1973 38.6097 52.0716 38.6774V42.2856C52.1973 42.3509 52.3447 42.3871 52.5139 42.3871C53.3718 42.3871 53.6353 41.4277 53.6353 40.4827C53.6353 39.5378 53.3718 38.5711 52.5139 38.5711ZM56.9994 40.6374C56.9994 42.7375 56.2526 44.8691 53.8238 44.8691C52.9586 44.8691 52.3109 44.5984 51.8299 44.1586C51.7381 44.5066 51.4191 44.7652 51.0421 44.7652H48.8018V33.1865H50.3219C51.2862 33.1865 52.0716 33.9671 52.0716 34.9363V36.9204C52.5211 36.599 53.0987 36.4032 53.8238 36.4056C56.2526 36.4056 56.9994 38.5372 56.9994 40.6374Z" fill="#1D1916"/>
<path d="M25.884 36.418C25.0381 36.418 24.2865 36.8167 23.8008 37.4354C23.4962 36.9255 22.938 36.5871 22.2999 36.5871H20.7822V44.6398H24.0521V39.5791C24.0521 39.2456 24.3252 38.9749 24.6563 38.9749C24.9874 38.9749 25.2605 39.2456 25.2605 39.5791V43.0181C25.2605 43.9848 26.0435 44.7654 27.0102 44.7654H28.5279V39.0643C28.5279 37.6022 27.3461 36.418 25.884 36.418Z" fill="#1D1916"/>
<path d="M44.5194 12.9804H50.1045C50.9576 12.9804 51.6488 12.2892 51.6488 11.4288V9.88695H47.7965C49.4447 8.24114 50.5178 7.16085 50.5178 7.16085L49.4302 6.06606C48.8236 5.46187 47.8424 5.46187 47.2407 6.06606L43.2941 10.0126C43.1805 10.1262 43.0524 10.2132 42.9123 10.2712L42.8978 10.2785C42.4748 10.4428 41.9746 10.3558 41.6338 10.0126C41.2906 9.67186 41.2036 9.17401 41.3728 8.75107C41.3752 8.74624 41.3776 8.73899 41.38 8.73416C41.438 8.60123 41.5202 8.46831 41.6314 8.35714L45.5803 4.40816C46.1845 3.80397 46.1845 2.82519 45.5803 2.22342L44.488 1.13104C44.488 1.13104 43.4101 2.20892 41.7643 3.85473V0H40.2176C39.3645 0 38.6733 0.693609 38.6733 1.54914V7.13185C38.6733 7.29377 38.6418 7.43878 38.5863 7.57895C38.5863 7.57895 38.5863 7.57895 38.5863 7.58136C38.5838 7.58861 38.5814 7.59345 38.579 7.6007C38.3978 8.01396 37.9845 8.30881 37.5011 8.30881C37.0178 8.30881 36.6045 8.01155 36.4233 7.59828C36.4233 7.59345 36.4184 7.5862 36.4184 7.58136C36.3604 7.44119 36.329 7.29619 36.329 7.13185V1.54914C36.329 0.693609 35.6354 0 34.7823 0H33.238V3.85473C31.5922 2.20892 30.5143 1.13104 30.5143 1.13104L29.4219 2.22583C28.8177 2.8276 28.8177 3.80881 29.4219 4.41058L33.3685 8.35956C33.4821 8.47315 33.5667 8.60365 33.6247 8.73899C33.6247 8.74624 33.6271 8.75107 33.6319 8.75591C33.8011 9.17884 33.7117 9.67669 33.3685 10.0175C33.0277 10.3606 32.5299 10.4476 32.1069 10.2833C32.0997 10.2809 32.0949 10.276 32.0876 10.2736C31.9499 10.2156 31.8218 10.1286 31.7082 10.015L27.7616 6.06847C27.1574 5.46429 26.1762 5.46429 25.572 6.06847L24.4797 7.16327C24.4797 7.16327 25.5575 8.24356 27.2034 9.88695H23.351V11.4288C23.351 12.2892 24.0447 12.9804 24.8978 12.9804H30.4805C30.64 12.9804 30.7898 13.0094 30.9276 13.065C30.9324 13.065 30.9397 13.0674 30.9445 13.0722C31.3602 13.2559 31.6526 13.6692 31.6526 14.1501C31.6526 14.631 31.3602 15.0467 30.9421 15.228C30.9372 15.2304 30.93 15.2328 30.9252 15.2352C30.9252 15.2352 30.9252 15.2352 30.9227 15.2352C30.7874 15.2908 30.6351 15.3222 30.4781 15.3222H24.8954C24.0398 15.3222 23.3486 16.0134 23.3486 16.869V18.4133H27.2009C25.5551 20.0591 24.4773 21.1369 24.4773 21.1369L25.5696 22.2317C26.1738 22.8335 27.155 22.8335 27.7592 22.2317L31.7058 18.2828C31.8169 18.1716 31.945 18.087 32.0828 18.029C32.0828 18.029 32.0828 18.029 32.0852 18.029C32.09 18.029 32.0949 18.0242 32.1021 18.0218C32.5226 17.855 33.0229 17.942 33.3637 18.2828C33.7068 18.6235 33.7938 19.1214 33.6271 19.5467C33.6247 19.5516 33.6223 19.5588 33.6174 19.5636C33.6174 19.5636 33.6174 19.5636 33.6174 19.5661C33.5618 19.7014 33.4772 19.8295 33.3661 19.9382L29.4195 23.8872C28.8153 24.4914 28.8153 25.4702 29.4195 26.0744L30.5119 27.1668C30.5119 27.1668 31.5898 26.0889 33.2356 24.4407V28.293H34.7799C35.633 28.293 36.3266 27.6018 36.3266 26.7462V21.1611C36.3266 21.004 36.358 20.8518 36.416 20.714C36.416 20.7092 36.4209 20.7044 36.4209 20.6995C36.5997 20.2838 37.0154 19.9914 37.4987 19.9914C37.9821 19.9914 38.3953 20.2838 38.5766 20.6995C38.5814 20.7068 38.5814 20.7116 38.5838 20.7189C38.6418 20.8566 38.6708 21.0064 38.6708 21.1611V26.7462C38.6708 27.6018 39.362 28.293 40.2176 28.293H41.7643V24.4407C43.4101 26.0889 44.488 27.1668 44.488 27.1668L45.5803 26.0744C46.1845 25.4702 46.1845 24.489 45.5803 23.8872L41.6338 19.9382C41.5202 19.8247 41.438 19.6966 41.3776 19.5564C41.3776 19.5564 41.3776 19.5491 41.3728 19.5443C41.2036 19.119 41.2906 18.6211 41.6338 18.2803C41.9746 17.9396 42.4748 17.8502 42.8953 18.0193C42.9026 18.0218 42.9098 18.0266 42.9171 18.0266C43.0548 18.0822 43.1805 18.1692 43.2941 18.2803L47.2407 22.2293C47.8448 22.8335 48.8236 22.8335 49.4327 22.2293L50.5202 21.1345C50.5202 21.1345 49.4472 20.0567 47.7989 18.4108H51.6512V16.8665C51.6512 16.011 50.9576 15.3198 50.1069 15.3198H44.5218C44.3647 15.3198 44.2101 15.2884 44.0747 15.2304C44.0747 15.2304 44.065 15.228 44.0602 15.2231C43.6421 15.0419 43.3521 14.631 43.3521 14.1453C43.3521 13.6595 43.6421 13.2511 44.0602 13.0674C44.065 13.065 44.0723 13.0626 44.0795 13.0577C44.2149 13.0021 44.3671 12.9731 44.5218 12.9731L44.5194 12.9804ZM40.9958 15.6026C40.5994 15.8612 40.2297 16.185 39.8816 16.533C39.5312 16.8835 39.2074 17.2532 38.9488 17.6472C38.4872 17.5505 37.9966 17.5191 37.5011 17.5191C37.0057 17.5191 36.5175 17.5505 36.0535 17.6472C35.7925 17.2532 35.4711 16.881 35.1206 16.5354C34.7726 16.185 34.4029 15.8612 34.0065 15.6026C34.1032 15.1361 34.1346 14.6455 34.1346 14.1525C34.1346 13.6595 34.1008 13.1689 34.0065 12.7025C34.4029 12.4439 34.7726 12.12 35.1206 11.772C35.4711 11.4216 35.7925 11.0518 36.0535 10.6579C36.5175 10.7521 37.0081 10.7836 37.5011 10.7836C37.9942 10.7836 38.4848 10.7497 38.9488 10.6579C39.2098 11.0494 39.5312 11.4192 39.8816 11.772C40.2297 12.12 40.5994 12.4463 40.9958 12.7025C40.8991 13.1689 40.8653 13.6595 40.8653 14.1525C40.8653 14.6455 40.8991 15.1361 40.9958 15.6026Z" fill="#1D1916"/>
</svg>
