<svg width="75" height="45" viewBox="0 0 75 45" fill="none" xmlns="http://www.w3.org/2000/svg">
<path fill-rule="evenodd" clip-rule="evenodd" d="M19.8886 22.4999L34.1694 36.3424C30.8303 39.7878 26.3488 41.9117 21.5658 42.3165C10.6231 43.2427 0.998101 35.1197 0.0719492 24.1771C-0.854202 13.2344 7.26879 3.6094 18.2114 2.68324C24.5089 2.1502 30.6873 4.64388 34.8493 9.39649L19.8886 22.4999V22.4999Z" fill="#1D1916"/>
<path d="M19.8885 32.439C25.3783 32.439 29.8287 27.9886 29.8287 22.4988C29.8287 17.009 25.3783 12.5586 19.8885 12.5586C14.3986 12.5586 9.94824 17.009 9.94824 22.4988C9.94824 27.9886 14.3986 32.439 19.8885 32.439Z" fill="#B6B7BD"/>
<path d="M42.5714 25.9963C42.2705 26.3029 42.0105 26.5234 41.7891 26.6577C41.5677 26.792 41.3367 26.8908 41.0982 26.9567C40.8575 27.0251 40.6048 27.058 40.3352 27.058C39.6443 27.058 39.0906 26.8325 38.6742 26.3789C38.2577 25.9255 38.0508 25.3705 38.0508 24.7118C38.0508 23.9111 38.3614 23.2422 38.9848 22.7051C39.6082 22.1678 40.6169 21.8994 42.0154 21.8994H42.5714V21.1569C42.5714 20.6578 42.439 20.3208 42.1766 20.1486C41.9144 19.9737 41.5797 19.8875 41.1752 19.8875C40.3762 19.8875 39.5601 20.1307 38.7272 20.6147V19.1021C39.6731 18.7246 40.612 18.5371 41.5484 18.5371C42.1213 18.5371 42.634 18.6181 43.0866 18.7829C43.5367 18.9449 43.8977 19.1984 44.1698 19.543C44.4393 19.8875 44.5742 20.3993 44.5742 21.0835V24.6889C44.5742 25.1298 44.6392 25.3984 44.7668 25.4972C44.8967 25.5961 45.0243 25.6467 45.1519 25.6467C45.2266 25.6467 45.3203 25.6366 45.4335 25.6163L45.4841 26.8502C45.0411 26.9897 44.6488 27.058 44.307 27.058C43.9219 27.058 43.5872 26.9897 43.308 26.8528C43.0288 26.7185 42.8145 26.4322 42.6629 25.9964H42.5714L42.5714 25.9963ZM42.5714 24.8157V23.1612H42.078C41.3967 23.1612 40.8888 23.2878 40.5542 23.5437C40.2196 23.7971 40.0535 24.1164 40.0535 24.4965C40.0535 24.808 40.1547 25.064 40.3569 25.2641C40.5591 25.4643 40.7973 25.5657 41.0694 25.5657C41.3125 25.5657 41.5628 25.5023 41.8132 25.3756C42.0659 25.2514 42.3187 25.064 42.5714 24.8157V24.8157Z" fill="#1D1916"/>
<path d="M53.5382 26.5969C52.5511 26.9035 51.6147 27.058 50.7313 27.058C49.8936 27.058 49.1595 26.8933 48.5313 26.564C47.9006 26.2346 47.4167 25.7202 47.0772 25.0209C46.7379 24.3216 46.5693 23.5589 46.5693 22.738C46.5693 21.9754 46.7138 21.2735 47.0003 20.6274C47.2891 19.9813 47.708 19.472 48.2568 19.097C48.808 18.7246 49.4845 18.5371 50.2885 18.5371C51.2754 18.5371 52.0649 18.8689 52.6546 19.5303C53.2444 20.1942 53.5381 21.4281 53.5381 23.2346H48.7695C48.8153 23.7844 48.9332 24.2177 49.1233 24.5344C49.3112 24.8511 49.5688 25.1019 49.8888 25.287C50.2113 25.4719 50.6447 25.5656 51.1863 25.5656C51.8819 25.5656 52.6643 25.3959 53.5381 25.0538V26.5969H53.5382ZM48.7407 21.9956H51.4847C51.4847 21.2482 51.3668 20.7136 51.1333 20.3918C50.8975 20.0699 50.5966 19.9103 50.2234 19.9103C49.8191 19.9103 49.4893 20.0877 49.2293 20.4399C48.9693 20.7946 48.8057 21.314 48.7407 21.9956V21.9956Z" fill="#1D1916"/>
<path d="M61.3805 26.6931C60.5234 26.9364 59.7243 27.058 58.9853 27.058C57.6734 27.058 56.6865 26.645 56.0246 25.8216C55.3626 24.9981 55.0327 23.9871 55.0327 22.7911C55.0327 21.5345 55.3818 20.5108 56.0799 19.7203C56.778 18.9324 57.8058 18.5371 59.1611 18.5371C59.7845 18.5371 60.5043 18.6435 61.3178 18.8564V20.445C60.4753 20.1536 59.8036 20.0066 59.303 20.0066C58.5904 20.0066 58.0682 20.2954 57.7409 20.8706C57.4111 21.4483 57.2473 22.0818 57.2473 22.7759C57.2473 23.3107 57.3412 23.8072 57.5314 24.2709C57.7215 24.7345 57.9864 25.0715 58.3282 25.2843C58.6676 25.4972 59.0502 25.6036 59.4764 25.6036C60.0925 25.6036 60.728 25.4592 61.3805 25.1704V26.6931L61.3805 26.6931Z" fill="#1D1916"/>
<path d="M63.417 26.8724V18.7214H65.504V26.8724H63.417ZM63.417 17.348V15.5137H65.504V17.348H63.417Z" fill="#1D1916"/>
<path d="M72.906 26.8724V25.3345C72.6412 25.9096 72.3018 26.3403 71.8878 26.6267C71.4737 26.913 70.9803 27.0574 70.4098 27.0574C69.4735 27.0574 68.7489 26.6875 68.2362 25.9476C67.721 25.2077 67.4634 24.2322 67.4634 23.0186C67.4634 21.739 67.7498 20.6698 68.3252 19.816C68.9005 18.9621 69.7021 18.5365 70.73 18.5365C71.0093 18.5365 71.2643 18.5669 71.4955 18.6302C71.7265 18.691 71.948 18.7872 72.1622 18.9165C72.3765 19.0432 72.6244 19.2535 72.906 19.5474V15.1514H75.0002V26.8724H72.906L72.906 26.8724ZM72.906 20.8523C72.622 20.5076 72.3523 20.2721 72.102 20.1479C71.8492 20.0237 71.5917 19.9629 71.3293 19.9629C70.7805 19.9629 70.369 20.2492 70.0945 20.8193C69.8225 21.3919 69.6852 22.0634 69.6852 22.8336C69.6852 23.5962 69.8128 24.2018 70.068 24.6554C70.3207 25.1089 70.689 25.3345 71.1729 25.3345C71.4785 25.3345 71.7843 25.2204 72.0828 24.9898C72.3837 24.7593 72.6581 24.4578 72.906 24.0802V20.8523L72.906 20.8523Z" fill="#1D1916"/>
</svg>
