<svg width="75" height="26" viewBox="0 0 75 26" fill="none" xmlns="http://www.w3.org/2000/svg">
<path d="M56.3609 22.2086V20.8596H57.0445C57.0993 20.8596 57.159 20.8755 57.2236 20.9072C57.2882 20.9376 57.343 20.9852 57.3881 21.0497C57.4344 21.1131 57.4575 21.1935 57.4575 21.291C57.4575 21.3897 57.4338 21.4738 57.3863 21.5432C57.3387 21.6115 57.2809 21.6633 57.2126 21.6986C57.1456 21.7339 57.0822 21.7516 57.0225 21.7516H56.529V21.5323H56.9311C56.9714 21.5323 57.0146 21.5122 57.0609 21.472C57.1084 21.4317 57.1322 21.3714 57.1322 21.291C57.1322 21.2081 57.1084 21.1521 57.0609 21.1229C57.0146 21.0936 56.9738 21.079 56.9385 21.079H56.657V22.2086H56.3609ZM57.1761 21.5725L57.5124 22.2086H57.187L56.858 21.5725H57.1761ZM56.8726 23.0128C56.6704 23.0128 56.4809 22.975 56.3042 22.8995C56.1275 22.8239 55.9722 22.7191 55.8381 22.5851C55.7041 22.451 55.5993 22.2957 55.5237 22.119C55.4482 21.9423 55.4104 21.7528 55.4104 21.5506C55.4104 21.3483 55.4482 21.1588 55.5237 20.9821C55.5993 20.8054 55.7041 20.6501 55.8381 20.516C55.9722 20.382 56.1275 20.2772 56.3042 20.2016C56.4809 20.1261 56.6704 20.0883 56.8726 20.0883C57.0749 20.0883 57.2644 20.1261 57.4411 20.2016C57.6178 20.2772 57.7731 20.382 57.9072 20.516C58.0412 20.6501 58.146 20.8054 58.2216 20.9821C58.2971 21.1588 58.3349 21.3483 58.3349 21.5506C58.3349 21.7528 58.2971 21.9423 58.2216 22.119C58.146 22.2957 58.0412 22.451 57.9072 22.5851C57.7731 22.7191 57.6178 22.8239 57.4411 22.8995C57.2644 22.975 57.0749 23.0128 56.8726 23.0128ZM56.8726 22.6618C57.0774 22.6618 57.2638 22.6119 57.432 22.512C57.6001 22.4121 57.7341 22.278 57.8341 22.1099C57.934 21.9417 57.9839 21.7553 57.9839 21.5506C57.9839 21.3458 57.934 21.1594 57.8341 20.9913C57.7341 20.8231 57.6001 20.6891 57.432 20.5891C57.2638 20.4892 57.0774 20.4393 56.8726 20.4393C56.6679 20.4393 56.4815 20.4892 56.3133 20.5891C56.1452 20.6891 56.0112 20.8231 55.9112 20.9913C55.8113 21.1594 55.7614 21.3458 55.7614 21.5506C55.7614 21.7553 55.8113 21.9417 55.9112 22.1099C56.0112 22.278 56.1452 22.4121 56.3133 22.512C56.4815 22.6119 56.6679 22.6618 56.8726 22.6618Z" fill="#1D1916"/>
<path d="M0.735352 13.001L37.5001 0.500977L74.2648 13.001L37.5001 25.501" fill="#1D1916"/>
<path d="M18.567 17.1248H18.5383C18.5383 17.3197 18.0684 17.4741 17.4883 17.48V18.027C17.4883 18.027 23.3023 18.027 25.053 18.027C26.6817 18.027 29.2023 16.0234 29.2023 13.0513C29.2023 10.3035 26.9714 7.91895 25.053 7.91895C23.317 7.91895 17.4883 7.91895 17.4883 7.91895V8.40939C17.4905 8.40939 17.4927 8.40939 17.4978 8.40939C18.0574 8.40939 18.503 8.55277 18.5596 8.73218H18.567V8.74615C18.5692 8.75424 18.578 8.75939 18.578 8.76895C18.578 8.77262 18.5692 8.77703 18.567 8.78586V17.1248V17.1248ZM20.8824 10.052C20.8824 10.052 23.1052 10.052 24.8405 10.052C25.617 10.052 27.0545 11.091 27.0574 13.0094C27.0603 14.8572 25.8228 15.8042 24.8405 15.8042C23.0927 15.8042 20.8824 15.8042 20.8824 15.8042V10.052ZM41.4861 13.877C41.4861 11.3689 39.3721 9.33512 36.1493 9.33512C32.9074 9.33512 30.8111 11.3763 30.8111 13.877C30.8111 16.4572 32.6324 18.1572 35.4655 18.3917H36.8339C39.667 18.1572 41.4861 16.4572 41.4861 13.877ZM33.1523 13.9984C33.1523 12.5895 34.3368 11.4535 36.1574 11.4535C37.9795 11.4535 39.1618 12.5895 39.1618 13.9984C39.1618 15.4042 37.9795 16.5432 36.1574 16.5432C34.3375 16.5432 33.1523 15.4042 33.1523 13.9984ZM53.7596 17.2197C53.7596 17.2197 56.6376 10.7807 56.6434 10.7741C56.7317 10.6528 56.8817 10.5439 57.1067 10.4969C57.1809 10.4829 57.5118 10.4844 57.5118 10.4844V9.85645L53.4773 9.87262V10.4822C53.4971 10.4822 53.5934 10.4822 53.6081 10.4837C54.1045 10.4925 54.1699 10.6395 54.1699 10.8197L52.5964 14.9454L50.814 10.1292L49.4824 10.1366H48.0846L46.4353 14.7557L45.0949 10.802H45.1148C45.1148 10.4925 45.3133 10.4667 45.6184 10.4667V9.87556H41.6876V10.4667C42.3096 10.4667 42.2692 10.6079 42.3751 10.802C42.378 10.805 42.3699 10.8101 42.3699 10.8131L44.7648 17.0057C44.7883 17.0653 44.7883 17.127 44.7883 17.1962C44.7883 17.5388 44.492 17.5984 44.1405 17.6072V18.1866L48.4361 18.2028V17.6285C48.4339 17.6285 48.4339 17.6285 48.4339 17.6285C47.9809 17.6285 47.8111 17.5439 47.8111 17.2182C47.8111 17.1667 47.8199 17.1204 47.8581 17.0785L49.4824 13.5388C49.4824 13.5388 50.8706 17.0859 50.8706 17.2094C50.8706 17.5189 50.764 17.6285 50.378 17.6285V18.2028L54.3604 18.1726V17.6101C53.7552 17.6101 53.7501 17.4814 53.7596 17.2197Z" fill="white"/>
</svg>
