<svg width="77" height="46" viewBox="0 0 77 46" fill="none" xmlns="http://www.w3.org/2000/svg">
<path d="M0.500827 21.1521C0.473867 22.6396 1.10332 24.7155 2.78422 26.3929C3.34101 26.952 3.99274 27.4186 4.70542 27.7901C4.71859 27.7225 4.73199 27.6553 4.74564 27.5883C4.88549 26.9017 5.05035 26.2461 5.23479 25.6191C5.28047 25.4638 5.32738 25.3102 5.37538 25.1584C5.3915 25.1074 5.40775 25.0566 5.42412 25.006C5.45021 24.9253 5.47663 24.8451 5.50334 24.7654C5.58239 24.5295 5.66409 24.2978 5.74806 24.0702C5.90073 23.6565 6.061 23.2563 6.2269 22.8687C6.03993 22.5731 5.85162 22.2296 5.66826 21.8514C4.78476 20.0296 4.0161 17.4053 4.06658 15.4804L4.06775 15.4792C4.44585 17.0993 5.22169 19.1642 6.05765 20.8511C6.15009 21.0377 6.24326 21.2196 6.33671 21.3957C6.43829 21.5872 6.5402 21.7719 6.64185 21.9485C6.77042 21.6787 6.90271 21.4135 7.03819 21.1523C7.76977 19.7419 8.59418 18.4489 9.42694 17.1859C9.30629 17.0046 9.19547 16.8106 9.09377 16.608C8.26571 14.9583 8.04335 12.7435 8.05901 12.2675C8.05901 12.2631 8.06238 12.2611 8.0666 12.2594C8.07024 12.2579 8.07451 12.2568 8.07776 12.2546C8.07955 12.2604 8.08135 12.2663 8.08315 12.2722C8.29384 12.959 8.63938 13.9928 9.19493 15.1192C9.26176 15.2547 9.33163 15.3915 9.40467 15.5292C9.5233 15.7529 9.65029 15.979 9.7862 16.2056C9.8315 16.2811 9.8778 16.3567 9.92511 16.4322C10.0857 16.1896 10.2457 15.9478 10.4046 15.7061C11.17 14.5415 11.9079 13.3791 12.5438 12.1444C12.474 12.0016 12.4076 11.8475 12.3451 11.6865C12.0187 10.8459 11.7978 9.81956 11.7587 9.26155C11.752 9.16657 11.7506 9.08516 11.7549 9.02054H11.7572C11.8564 9.35475 12.0379 9.73694 12.2504 10.1071C12.485 10.5159 12.7574 10.9101 12.9986 11.209C13.1256 10.9579 13.2447 10.7121 13.3564 10.4723C14.1381 8.79338 14.5539 7.4032 14.7498 6.46986C14.8668 5.69616 14.9344 4.8895 14.943 4.04286C14.9435 3.99569 14.9438 3.94839 14.9439 3.90096C14.9439 3.8881 14.9439 3.87522 14.9439 3.86234C14.9441 2.95685 14.877 2.0053 14.731 1.00008C14.7206 1.13205 14.7083 1.26228 14.6942 1.39081C14.6914 1.41581 14.6886 1.44074 14.6857 1.46561C14.672 1.58385 14.6567 1.70064 14.6398 1.81602C14.6223 1.93638 14.6031 2.0552 14.5823 2.17253C14.5757 2.20991 14.5689 2.24714 14.5619 2.28423C14.5475 2.36096 14.5324 2.43704 14.5167 2.51249C13.871 5.6002 12.081 7.62451 9.98704 9.32486C9.75601 9.51245 9.52128 9.6961 9.28398 9.8768C9.02227 10.0761 8.75743 10.2718 8.49097 10.4653C8.39675 10.5337 8.30233 10.6018 8.20777 10.6697C8.20203 10.6738 8.19628 10.6779 8.19053 10.6821C8.18083 10.689 8.17113 10.696 8.16143 10.7029C7.89342 10.8951 7.62442 11.0856 7.35595 11.2757C6.02971 12.2147 4.71639 13.1446 3.59954 14.2269C1.83192 15.9399 0.556435 18.0348 0.500827 21.1521Z" fill="#F2F3F4"/>
<path fill-rule="evenodd" clip-rule="evenodd" d="M1.30069 21.1668C1.34172 18.8667 2.09429 17.1782 3.26483 15.7614C3.27942 16.9747 3.55905 18.3584 3.95117 19.6361C4.32473 20.8533 4.8177 22.0302 5.33268 22.9328C4.88453 24.026 4.48188 25.2166 4.16459 26.5209C3.87275 26.3102 3.60044 26.0792 3.35109 25.8288L3.34931 25.8271C1.82667 24.3076 1.27756 22.443 1.30069 21.1668ZM3.97548 27.362C4.21021 27.5166 4.45403 27.6591 4.70542 27.7901C4.71859 27.7225 4.73199 27.6553 4.74564 27.5883C4.78785 27.3811 4.83236 27.177 4.87899 26.9753C4.98684 26.5088 5.10603 26.057 5.23479 25.6191C5.28047 25.4638 5.32738 25.3102 5.37538 25.1584C5.3915 25.1074 5.40775 25.0566 5.42412 25.006C5.45021 24.9253 5.47663 24.8451 5.50334 24.7654C5.58239 24.5295 5.66409 24.2978 5.74806 24.0702C5.90073 23.6565 6.061 23.2563 6.2269 22.8687C6.03993 22.5731 5.85162 22.2296 5.66826 21.8514C5.65342 21.8209 5.63862 21.79 5.62385 21.759C4.75918 19.9417 4.01695 17.373 4.06658 15.4804L4.06775 15.4792L4.06803 15.4804L4.06847 15.4823C4.44683 17.1019 5.22222 19.1653 6.05765 20.8511C6.09654 20.9296 6.13556 21.0072 6.17467 21.084C6.22853 21.1897 6.28258 21.2937 6.33671 21.3957L6.33905 21.4002C6.43986 21.5901 6.54098 21.7733 6.64185 21.9485C6.77042 21.6787 6.90271 21.4135 7.03819 21.1523C7.05056 21.1284 7.06296 21.1046 7.07538 21.0809C7.79765 19.6982 8.60826 18.4276 9.42694 17.1859C9.30629 17.0046 9.19547 16.8106 9.09377 16.608C9.09219 16.6048 9.09061 16.6017 9.08903 16.5985C8.26486 14.9498 8.04338 12.7426 8.05901 12.2675C8.05901 12.2631 8.06238 12.2611 8.0666 12.2594L8.06962 12.2583C8.07245 12.2573 8.07538 12.2562 8.07776 12.2546C8.07907 12.2589 8.08039 12.2632 8.08171 12.2675L8.08315 12.2722C8.29384 12.959 8.63938 13.9928 9.19493 15.1192C9.26176 15.2547 9.33163 15.3915 9.40467 15.5292C9.42802 15.5733 9.45169 15.6174 9.4757 15.6616C9.57364 15.842 9.67704 16.0236 9.7862 16.2056C9.78781 16.2083 9.78943 16.211 9.79105 16.2136C9.8348 16.2865 9.87949 16.3594 9.92511 16.4322C10.0857 16.1896 10.2457 15.9478 10.4046 15.7061C10.4073 15.702 10.41 15.6979 10.4127 15.6938C11.1752 14.5333 11.9102 13.3748 12.5438 12.1444C12.474 12.0016 12.4076 11.8475 12.3451 11.6865C12.3417 11.6777 12.3383 11.6688 12.3349 11.6599C12.014 10.8244 11.7974 9.81369 11.7587 9.26155C11.7582 9.25419 11.7577 9.24691 11.7572 9.23972C11.7563 9.22521 11.7555 9.21104 11.7549 9.19721C11.7517 9.12975 11.7517 9.06991 11.7549 9.02054H11.7572C11.8564 9.35475 12.0379 9.73694 12.2504 10.1071C12.3212 10.2305 12.3955 10.3526 12.4713 10.4711C12.6466 10.7452 12.8302 11.0003 12.9986 11.209C13.003 11.2003 13.0074 11.1916 13.0117 11.1829C13.1338 10.9408 13.2486 10.7038 13.3564 10.4723C13.3675 10.4485 13.3785 10.4247 13.3895 10.401C14.1499 8.75402 14.5567 7.38996 14.7498 6.46986C14.8668 5.69616 14.9344 4.8895 14.943 4.04286C14.9432 4.02528 14.9433 4.00769 14.9435 3.99007C14.9437 3.96042 14.9438 3.93071 14.9439 3.90096C14.9439 3.8881 14.9439 3.87522 14.9439 3.86234C14.9441 2.95685 14.877 2.0053 14.731 1.00008C14.7206 1.13205 14.7083 1.26228 14.6942 1.39081C14.6914 1.41581 14.6886 1.44074 14.6857 1.46561C14.672 1.58385 14.6567 1.70064 14.6398 1.81602C14.6223 1.93638 14.6031 2.0552 14.5823 2.17253C14.5757 2.20991 14.5689 2.24714 14.5619 2.28423C14.5475 2.36096 14.5324 2.43704 14.5167 2.51249C14.4181 2.98401 14.2929 3.43074 14.1439 3.85519C13.5194 5.63531 12.4782 7.02571 11.2411 8.22054C11.1583 8.30052 11.0746 8.37961 10.9901 8.45789C10.6665 8.75779 10.3308 9.04569 9.98704 9.32486C9.75601 9.51245 9.52128 9.6961 9.28398 9.8768C9.02227 10.0761 8.75743 10.2718 8.49097 10.4653C8.39675 10.5337 8.30233 10.6018 8.20777 10.6697C8.20203 10.6738 8.19628 10.6779 8.19053 10.6821C8.18083 10.689 8.17113 10.696 8.16143 10.7029C7.89373 10.8949 7.62505 11.0851 7.35688 11.275L7.35595 11.2757C6.02971 12.2147 4.71639 13.1446 3.59954 14.2269C1.83192 15.9399 0.556435 18.0348 0.500827 21.1521C0.473867 22.6396 1.10332 24.7155 2.78422 26.3929C3.14461 26.7548 3.54476 27.0784 3.97548 27.362ZM12.3566 8.22812C12.9684 7.57332 13.5273 6.85527 14.0013 6.05067C13.989 6.14351 13.9759 6.23582 13.9622 6.32761C13.7985 7.09916 13.4699 8.22393 12.8768 9.58892C12.7208 9.30503 12.5935 9.02653 12.5242 8.79301L12.3566 8.22812ZM10.9816 9.53807C10.2235 10.1894 9.42656 10.7812 8.63662 11.3471L8.84274 12.0205C9.05587 12.7168 9.4073 13.7675 9.97806 14.8969C10.5787 13.9747 11.1475 13.0635 11.6551 12.1157C11.4518 11.6206 11.2885 11.0715 11.1721 10.5799C11.0882 10.225 11.0187 9.85842 10.9816 9.53807ZM7.34062 12.2675C7.31316 12.2871 7.28572 12.3066 7.25833 12.3261C7.25977 12.7261 7.3423 13.5551 7.54076 14.4744C7.72171 15.3126 8.01525 16.305 8.48291 17.1662C7.8507 18.1341 7.22044 19.1373 6.63454 20.2088C5.87906 18.6319 5.18925 16.7646 4.84681 15.2974L4.62904 14.3643C5.42431 13.657 6.3177 12.9972 7.25833 12.3261C7.25822 12.2958 7.25858 12.2679 7.25939 12.2427L7.25944 12.2412L7.37235 12.2449C7.36177 12.2524 7.35119 12.26 7.34062 12.2675ZM8.03569 12.2675H7.34062Z" fill="#1D1916"/>
<path fill-rule="evenodd" clip-rule="evenodd" d="M35.0805 3.11448C34.0805 6.82819 31.3554 8.93385 28.5824 10.9078C28.5017 10.9653 28.4208 11.0227 28.34 11.08C28.2484 11.145 28.1569 11.2098 28.0653 11.2747C27.9449 11.3599 27.8245 11.4452 27.7046 11.5304C27.6921 11.5392 27.6797 11.548 27.6673 11.5568C24.386 13.8878 21.2975 16.2622 21.2108 21.1525C21.1839 22.64 21.8133 24.716 23.4919 26.3933C23.6739 26.5754 23.8659 26.7483 24.0669 26.9116C24.3328 27.1276 24.6143 27.3267 24.9089 27.5078C31.2195 31.3877 43.508 26.9959 36.1407 3.1558C36.1337 3.13296 36.1266 3.11014 36.1195 3.08727C35.9087 2.40755 35.682 1.71206 35.4387 1.00054C35.3786 1.76015 35.2561 2.46212 35.0805 3.11448ZM22.785 27.1007C22.9292 27.2449 23.079 27.3841 23.234 27.5179C26.532 30.3659 32.1791 30.8222 35.8976 26.958C39.7673 22.9366 41.1619 14.6478 36.3849 0.677002L34.4418 0.921654C34.0595 5.75344 30.9552 8.00278 27.4972 10.4517C27.4606 10.4775 27.4241 10.5034 27.3874 10.5293C24.0322 12.9047 20.3103 15.5397 20.211 21.1344M22.785 27.1007C20.9091 25.2261 20.1793 22.8858 20.211 21.1344Z" fill="#F2F3F4"/>
<path d="M10.796 21.1525C10.7702 22.64 11.3973 24.716 13.0782 26.3933C13.278 26.5932 13.4899 26.7821 13.7124 26.9592C16.6146 24.5979 18.5375 19.7459 17.3635 11.4792C14.0414 13.8354 10.8842 16.2079 10.796 21.1525Z" fill="#1D1916"/>
<path d="M24.666 3.11562C23.6046 7.05978 20.5963 9.18999 17.6513 11.2753L17.3635 11.4792C18.5375 19.7459 16.6146 24.5979 13.7124 26.9592C16.2421 28.973 20.1451 29.4772 23.234 27.5179C23.079 27.3841 22.9292 27.2449 22.785 27.1007C20.9091 25.2261 20.1793 22.8858 20.211 21.1344C20.3103 15.5397 24.0322 12.9047 27.3874 10.5293L27.4972 10.4517C27.126 8.23496 26.5414 5.78554 25.705 3.08833C25.4941 2.40827 25.2672 1.71243 25.0238 1.00054C24.9639 1.76059 24.8416 2.46294 24.666 3.11562Z" fill="#1D1916"/>
<path d="M36.1195 3.08727C35.9087 2.40755 35.682 1.71206 35.4387 1.00054C35.3786 1.76015 35.2561 2.46212 35.0805 3.11448C34.0805 6.82819 31.3554 8.93385 28.5824 10.9078C29.7974 18.8685 28.2928 24.0381 25.4833 26.9579C25.2965 27.1521 25.1049 27.3353 24.9089 27.5078C31.2195 31.3877 43.508 26.9959 36.1407 3.1558L36.1195 3.08727Z" fill="#1D1916"/>
<path d="M21.2108 21.1525C21.1839 22.64 21.8133 24.716 23.4919 26.3933C23.6739 26.5754 23.8659 26.7483 24.0669 26.9116C24.3061 26.7132 24.5385 26.4976 24.7629 26.2644C27.2208 23.7097 28.7158 19.0372 27.6673 11.5568C24.386 13.8878 21.2975 16.2622 21.2108 21.1525Z" fill="#1D1916"/>
<path fill-rule="evenodd" clip-rule="evenodd" d="M0.500827 21.1521C0.473867 22.6396 1.10332 24.7155 2.78422 26.3929C3.34101 26.952 3.99274 27.4186 4.70542 27.7901C4.71859 27.7225 4.73199 27.6553 4.74564 27.5883C4.88549 26.9017 5.05035 26.2461 5.23479 25.6191C5.10603 26.057 4.98684 26.5088 4.87899 26.9753C4.83236 27.177 4.78785 27.3811 4.74564 27.5883C4.73199 27.6553 4.71859 27.7225 4.70542 27.7901C4.26116 30.0642 4.09354 32.6676 4.40534 35.6894L6.01123 35.6039C5.42279 32.8176 5.36653 30.376 5.65019 28.211C7.91344 29.0569 10.6042 28.9639 12.8695 27.56C12.6971 27.4135 12.531 27.2604 12.3718 27.1012C10.4925 25.2258 9.76577 22.8854 9.79611 21.1352C9.89591 15.5406 13.6183 12.9051 16.9736 10.5299L17.0841 10.4516L17.1916 10.3755L17.1829 10.3246C16.7155 7.58015 15.9213 4.48205 14.731 1.00008C14.877 2.0053 14.9441 2.95685 14.9439 3.86234L14.9439 3.90096C14.9438 3.94839 14.9435 3.99569 14.943 4.04286L14.9435 3.99007L14.9439 3.90096L14.9439 3.86234C14.9441 2.95685 14.877 2.0053 14.731 1.00008C14.7206 1.13205 14.7083 1.26228 14.6942 1.39081L14.6857 1.46561C14.672 1.58385 14.6567 1.70064 14.6398 1.81602C14.6223 1.93638 14.6031 2.0552 14.5823 2.17253C14.5757 2.20991 14.5689 2.24714 14.5619 2.28423C14.5475 2.36096 14.5324 2.43704 14.5167 2.51249C14.4181 2.98401 14.2929 3.43074 14.1439 3.85519C13.5194 5.63531 12.4782 7.02571 11.2411 8.22054C11.1583 8.30052 11.0746 8.37961 10.9901 8.45789C10.6665 8.75779 10.3308 9.04569 9.98704 9.32486C9.75601 9.51245 9.52128 9.6961 9.28398 9.8768C9.02227 10.0761 8.75743 10.2718 8.49097 10.4653C8.39675 10.5337 8.30233 10.6018 8.20777 10.6697L8.19053 10.6821L8.16143 10.7029C7.89373 10.8949 7.62505 11.0851 7.35688 11.275L7.35595 11.2757C6.02971 12.2147 4.71639 13.1446 3.59954 14.2269C1.83192 15.9399 0.556435 18.0348 0.500827 21.1521ZM4.06775 15.4792L4.06847 15.4823L4.06803 15.4804L4.06775 15.4792ZM4.06847 15.4823L4.06775 15.4792L4.06803 15.4804L4.06847 15.4823ZM12.3349 11.6599C12.014 10.8244 11.7974 9.81369 11.7587 9.26155C11.7582 9.25419 11.7577 9.24691 11.7572 9.23972C11.7563 9.22521 11.7555 9.21104 11.7549 9.19721C11.7517 9.12975 11.7517 9.06991 11.7549 9.02054C11.7506 9.08516 11.752 9.16657 11.7587 9.26155C11.7974 9.81369 12.014 10.8244 12.3349 11.6599ZM11.7587 9.26155C11.752 9.16657 11.7506 9.08516 11.7549 9.02054H11.7572C11.8564 9.35475 12.0379 9.73694 12.2504 10.1071C12.3212 10.2305 12.3955 10.3526 12.4713 10.4711C12.6466 10.7452 12.8302 11.0003 12.9986 11.209L13.0117 11.1829C13.0074 11.1916 13.003 11.2003 12.9986 11.209C12.8302 11.0003 12.6466 10.7452 12.4713 10.4711C12.3955 10.3526 12.3212 10.2305 12.2504 10.1071C12.0379 9.73694 11.8564 9.35475 11.7572 9.02054H11.7549C11.7517 9.06991 11.7517 9.12975 11.7549 9.19721C11.7555 9.21104 11.7563 9.22521 11.7572 9.23972C11.7577 9.24691 11.7582 9.25419 11.7587 9.26155ZM12.9986 11.209C13.003 11.2003 13.0074 11.1916 13.0117 11.1829L12.9986 11.209ZM1.30069 21.1668C1.34172 18.8667 2.09429 17.1782 3.26483 15.7614C3.27942 16.9747 3.55905 18.3584 3.95117 19.6361C4.32473 20.8533 4.8177 22.0302 5.33268 22.9328C4.88453 24.026 4.48188 25.2166 4.16459 26.5209C3.87275 26.3102 3.60044 26.0792 3.35109 25.8288L3.34931 25.8271C1.82667 24.3076 1.27756 22.443 1.30069 21.1668ZM12.3566 8.22812C12.9684 7.57332 13.5273 6.85527 14.0013 6.05067C13.989 6.14351 13.9759 6.23582 13.9622 6.32761C13.7985 7.09916 13.4699 8.22393 12.8768 9.58892C12.7208 9.30503 12.5935 9.02653 12.5242 8.79301L12.3566 8.22812ZM8.63662 11.3471C9.42656 10.7812 10.2235 10.1894 10.9816 9.53807C11.0187 9.85842 11.0882 10.225 11.1721 10.5799C11.2885 11.0715 11.4518 11.6206 11.6551 12.1157C11.1475 13.0635 10.5787 13.9747 9.97806 14.8969C9.4073 13.7675 9.05587 12.7168 8.84274 12.0205L8.63662 11.3471ZM7.34062 12.2675L7.25833 12.3261C7.25977 12.7261 7.3423 13.5551 7.54076 14.4744C7.72171 15.3126 8.01525 16.305 8.48291 17.1662C7.8507 18.1341 7.22044 19.1373 6.63454 20.2088C5.87906 18.6319 5.18925 16.7646 4.84681 15.2974L4.62904 14.3643C5.42431 13.657 6.3177 12.9972 7.25833 12.3261C7.25822 12.2958 7.25858 12.2679 7.25939 12.2427L7.25944 12.2412L7.37235 12.2449L7.34062 12.2675Z" fill="#1D1916"/>
<path fill-rule="evenodd" clip-rule="evenodd" d="M12.3718 27.1012C10.4925 25.2258 9.76577 22.8854 9.79611 21.1352C9.89591 15.5406 13.6183 12.9051 16.9736 10.5299L17.0841 10.4516L17.1916 10.3755C20.6065 7.95585 23.6501 5.70344 24.0269 0.921982L25.9701 0.677004C27.2786 4.50393 28.1241 7.90451 28.5824 10.9078L28.34 11.08C28.2484 11.145 28.1569 11.2098 28.0653 11.2747C27.9449 11.3599 27.8245 11.4452 27.7046 11.5304L27.6673 11.5568C24.386 13.8878 21.2975 16.2622 21.2108 21.1525C21.1839 22.64 21.8133 24.716 23.4919 26.3933C23.6739 26.5754 23.8659 26.7483 24.0669 26.9116C24.3328 27.1276 24.6143 27.3267 24.9089 27.5078C21.223 30.7533 16.0073 30.2284 12.8695 27.56C12.6971 27.4135 12.531 27.2604 12.3718 27.1012ZM27.6162 11.2031C27.2567 8.79173 26.6371 6.09417 25.705 3.08833C25.4941 2.40827 25.2672 1.71243 25.0238 1.00054C24.9639 1.76059 24.8416 2.46294 24.666 3.11562C23.6046 7.05978 20.5963 9.18999 17.6513 11.2753L17.3635 11.4792C14.0414 13.8354 10.8842 16.2079 10.796 21.1525C10.7702 22.64 11.3973 24.716 13.0782 26.3933C13.278 26.5932 13.4899 26.7821 13.7124 26.9592C16.2421 28.973 20.1451 29.4772 23.234 27.5179C23.079 27.3841 22.9292 27.2449 22.785 27.1007C20.9091 25.2261 20.1793 22.8858 20.211 21.1344C20.3103 15.5397 24.0322 12.9047 27.3874 10.5293L27.4972 10.4517C27.5396 10.7052 27.5793 10.9556 27.6162 11.2031ZM10.9901 8.45789C10.6665 8.75779 10.3308 9.04569 9.98704 9.32486C12.081 7.62451 13.871 5.6002 14.5167 2.51249C14.4181 2.98401 14.2929 3.43074 14.1439 3.85519C13.5194 5.63531 12.4782 7.02571 11.2411 8.22054C11.1583 8.30052 11.0746 8.37961 10.9901 8.45789ZM4.74564 27.5883C4.88549 26.9017 5.05035 26.2461 5.23479 25.6191C5.10603 26.057 4.98684 26.5088 4.87899 26.9753C4.83236 27.177 4.78785 27.3811 4.74564 27.5883ZM8.49097 10.4653C8.39675 10.5337 8.30233 10.6018 8.20777 10.6697L8.19053 10.6821C8.29085 10.6101 8.39102 10.5378 8.49097 10.4653ZM14.943 4.04286L14.9435 3.99007L14.9439 3.90096C14.9438 3.94839 14.9435 3.99569 14.943 4.04286ZM1.30069 21.1668C1.34172 18.8667 2.09429 17.1782 3.26483 15.7614C3.27942 16.9747 3.55905 18.3584 3.95117 19.6361C4.32473 20.8533 4.8177 22.0302 5.33268 22.9328C4.88453 24.026 4.48188 25.2166 4.16459 26.5209C3.87275 26.3102 3.60044 26.0792 3.35109 25.8288L3.34931 25.8271C1.82667 24.3076 1.27756 22.443 1.30069 21.1668ZM12.3566 8.22812C12.9684 7.57332 13.5273 6.85527 14.0013 6.05067C13.989 6.14351 13.9759 6.23582 13.9622 6.32761C13.7985 7.09916 13.4699 8.22393 12.8768 9.58892C12.7208 9.30503 12.5935 9.02653 12.5242 8.79301L12.3566 8.22812ZM8.63662 11.3471C9.42656 10.7812 10.2235 10.1894 10.9816 9.53807C11.0187 9.85842 11.0882 10.225 11.1721 10.5799C11.2885 11.0715 11.4518 11.6206 11.6551 12.1157C11.1475 13.0635 10.5787 13.9747 9.97806 14.8969C9.4073 13.7675 9.05587 12.7168 8.84274 12.0205L8.63662 11.3471ZM7.25833 12.3261C7.25977 12.7261 7.3423 13.5551 7.54076 14.4744C7.72171 15.3126 8.01525 16.305 8.48291 17.1662C7.8507 18.1341 7.22044 19.1373 6.63454 20.2088C5.87906 18.6319 5.18925 16.7646 4.84681 15.2974L4.62904 14.3643C5.42431 13.657 6.3177 12.9972 7.25833 12.3261ZM7.25833 12.3261C7.25822 12.2958 7.25858 12.2679 7.25939 12.2427L7.25944 12.2412L7.37235 12.2449L7.34062 12.2675L7.25833 12.3261Z" fill="#F2F3F4"/>
<path d="M24.7629 26.2644C24.5385 26.4976 24.3061 26.7132 24.0669 26.9116C24.3328 27.1276 24.6143 27.3267 24.9089 27.5078C25.1049 27.3353 25.2965 27.1521 25.4833 26.9579C28.2928 24.0381 29.7974 18.8685 28.5824 10.9078L28.34 11.08C28.1279 11.2304 27.9159 11.3803 27.7046 11.5304L27.6673 11.5568C28.7158 19.0372 27.2208 23.7097 24.7629 26.2644Z" fill="#1D1916"/>
<path d="M50.6956 41.3014C51.3219 41.1218 52.4163 40.6143 52.4163 39.2493C52.4163 38.1843 51.5162 37.1076 49.7941 37.1076H46.1182V44.8896H47.8212V38.1658H49.1638C50.4559 38.1658 50.6489 38.89 50.6489 39.3209C50.6489 40.0395 50.0994 40.489 49.2144 40.489C48.6406 40.4908 48.3143 40.7007 48.3143 41.057C48.3143 41.2558 48.4469 41.5157 49.0792 41.6064C49.8585 41.7213 50.1736 42.4374 50.5728 43.3431C50.5728 43.3431 50.9175 44.1087 51.037 44.3562C51.1545 44.6019 51.2621 44.8896 51.8524 44.8896H53.1799L52.5936 43.7024C52.0067 42.4806 51.5385 41.762 50.6956 41.3014Z" fill="#1D1916"/>
<path d="M33.9307 41.3014C34.5577 41.1218 35.6522 40.6143 35.6522 39.2493C35.6522 38.1843 34.7514 37.1076 33.0293 37.1076H29.3527V44.8896H31.0564V38.1658H32.399C33.6911 38.1658 33.8841 38.89 33.8841 39.3209C33.8841 40.0395 33.3346 40.489 32.4509 40.489C31.8771 40.4908 31.5488 40.7007 31.5488 41.057C31.5488 41.2558 31.6821 41.5157 32.3137 41.6064C33.0949 41.7213 33.4088 42.4374 33.8086 43.3431C33.8086 43.3431 34.1526 44.1087 34.2721 44.3562C34.3896 44.6019 34.4973 44.8896 35.0882 44.8896H36.415L35.8294 43.7024C35.2412 42.4806 34.773 41.762 33.9307 41.3014Z" fill="#1D1916"/>
<path d="M10.5 44.8911H12.205V37.1097H10.5V44.8911Z" fill="#1D1916"/>
<path d="M23.6857 41.4016H27.6761V40.3434H23.6857V38.1665H27.8698V37.1083H21.9813V44.8904H27.9585V43.8322H23.6857V41.4016Z" fill="#1D1916"/>
<path d="M39.0162 38.1666H40.3825C42.2884 38.1666 43.3809 39.2001 43.3809 40.9992C43.3809 42.7723 42.27 43.8323 40.4074 43.8323H39.0162V38.1666ZM40.6648 37.1084H37.3125V44.8911H40.4225C43.4702 44.8911 45.1496 43.5125 45.1496 41.0109C45.1496 38.6025 43.4308 37.1084 40.6648 37.1084Z" fill="#1D1916"/>
<path d="M57.6802 43.7356C55.9883 43.7356 55.018 42.7385 55.018 40.9988C55.018 39.2615 55.9883 38.2632 57.6802 38.2632C59.3643 38.2632 60.3281 39.2615 60.3281 40.9988C60.3281 42.7385 59.3643 43.7356 57.6802 43.7356ZM57.6802 37C54.6208 37 53.2512 39.0077 53.2512 40.9988C53.2512 42.9904 54.6208 45 57.6802 45C60.7134 45 62.0974 42.9262 62.0974 40.9988C62.0974 39.0077 60.7305 37 57.6802 37Z" fill="#1D1916"/>
<path d="M15.7713 38.1666H17.1533C18.1532 38.1666 18.5097 38.6815 18.5097 39.1606C18.5097 39.6996 18.0856 40.2787 17.1533 40.2787C16.5782 40.2787 16.2506 40.4707 16.2506 40.8071C16.2506 40.9633 16.3359 41.3307 17.1454 41.3362L17.5387 41.3381C18.4506 41.3381 19.1137 41.8641 19.1137 42.5938C19.1137 43.6903 18.1132 43.8323 17.2433 43.8323H15.7713V38.1666ZM18.8485 40.659C19.4512 40.4194 20.2771 39.9082 20.2771 38.8914C20.2771 38.003 19.4532 37.1084 17.6155 37.1084H14.0682V44.8911H18.0902C20.6665 44.8911 20.9448 43.3594 20.9448 42.7019C20.9448 41.3406 19.656 40.8393 18.8485 40.659Z" fill="#1D1916"/>
<path d="M70.5327 42.0955C70.6188 41.885 71.6896 39.2204 71.9062 38.6783C72.14 39.2031 73.2896 41.7683 73.4353 42.0955H70.5327ZM72.8228 37.1083H70.9569L67.6085 44.8904H67.6203H69.4094C69.4094 44.8904 69.999 43.4241 70.0653 43.2605H73.9605C74.0262 43.4124 74.4437 44.3563 74.4437 44.3563C74.556 44.6058 74.6827 44.8904 75.2572 44.8904H76.5L72.8228 37.1083Z" fill="#1D1916"/>
<path d="M64.8348 43.8316V37.1096H63.1292V44.8904H67.4236L67.4301 43.8316H64.8348Z" fill="#1D1916"/>
</svg>
