<svg width="75" height="45" viewBox="0 0 75 45" fill="none" xmlns="http://www.w3.org/2000/svg">
<path d="M18.2071 44.1945V41.0833C18.2071 39.8931 17.4821 39.1138 16.2376 39.1138C15.6154 39.1138 14.9387 39.3192 14.4736 39.9958C14.1111 39.428 13.5915 39.1138 12.8122 39.1138C12.2927 39.1138 11.7731 39.2709 11.3623 39.8388V39.2165H10.2749V44.1945H11.3623V41.4457C11.3623 40.5637 11.8275 40.1469 12.5525 40.1469C13.2774 40.1469 13.6399 40.612 13.6399 41.4457V44.1945H14.7273V41.4457C14.7273 40.5637 15.2468 40.1469 15.9174 40.1469C16.6424 40.1469 17.0048 40.612 17.0048 41.4457V44.1945H18.2071ZM34.3372 39.2165H32.5731V37.7122H31.4857V39.2165H30.501V40.2012H31.4857V42.4848C31.4857 43.6266 31.9509 44.2972 33.1954 44.2972C33.6606 44.2972 34.1801 44.1401 34.5426 43.9347L34.2284 42.9983C33.9143 43.2037 33.5518 43.2581 33.292 43.2581C32.7725 43.2581 32.5671 42.944 32.5671 42.4304V40.2012H34.3311V39.2165H34.3372ZM43.5682 39.1078C42.946 39.1078 42.5291 39.4219 42.2693 39.8327V39.2105H41.1819V44.1884H42.2693V41.3853C42.2693 40.5577 42.6318 40.0865 43.3084 40.0865C43.5138 40.0865 43.7736 40.1408 43.9851 40.1892L44.2992 39.1501C44.0817 39.1078 43.7736 39.1078 43.5682 39.1078ZM29.619 39.6273C29.0994 39.2648 28.3745 39.1078 27.5952 39.1078C26.3507 39.1078 25.523 39.73 25.523 40.7147C25.523 41.5424 26.1453 42.0136 27.2327 42.1646L27.7522 42.219C28.3201 42.3217 28.6343 42.4788 28.6343 42.7386C28.6343 43.101 28.2174 43.3608 27.4925 43.3608C26.7675 43.3608 26.1936 43.101 25.8311 42.8413L25.3116 43.6689C25.8794 44.0857 26.6588 44.2912 27.4381 44.2912C28.888 44.2912 29.7217 43.6145 29.7217 42.6842C29.7217 41.8022 29.0451 41.337 28.012 41.1799L27.4925 41.1255C27.0273 41.0712 26.6648 40.9685 26.6648 40.6604C26.6648 40.2979 27.0273 40.0925 27.6012 40.0925C28.2234 40.0925 28.8457 40.3523 29.1598 40.5093L29.619 39.6273ZM58.5505 39.1078C57.9283 39.1078 57.5114 39.4219 57.2516 39.8327V39.2105H56.1642V44.1884H57.2516V41.3853C57.2516 40.5577 57.6141 40.0865 58.2907 40.0865C58.4961 40.0865 58.7559 40.1408 58.9673 40.1892L59.2815 39.1621C59.07 39.1078 58.7619 39.1078 58.5505 39.1078ZM44.6556 41.7055C44.6556 43.2098 45.6947 44.2972 47.3017 44.2972C48.0266 44.2972 48.5462 44.1401 49.0657 43.7293L48.5462 42.8473C48.1293 43.1614 47.7185 43.3125 47.2473 43.3125C46.3653 43.3125 45.7431 42.6902 45.7431 41.7055C45.7431 40.7691 46.3653 40.1469 47.2473 40.0985C47.7125 40.0985 48.1293 40.2556 48.5462 40.5637L49.0657 39.6817C48.5462 39.2648 48.0266 39.1138 47.3017 39.1138C45.6947 39.1078 44.6556 40.2012 44.6556 41.7055ZM54.7143 41.7055V39.2165H53.6269V39.8388C53.2644 39.3736 52.7449 39.1138 52.0682 39.1138C50.6667 39.1138 49.5793 40.2012 49.5793 41.7055C49.5793 43.2098 50.6667 44.2972 52.0682 44.2972C52.7932 44.2972 53.3127 44.0374 53.6269 43.5722V44.1945H54.7143V41.7055ZM50.721 41.7055C50.721 40.8235 51.2889 40.0985 52.2253 40.0985C53.1073 40.0985 53.7296 40.7752 53.7296 41.7055C53.7296 42.5875 53.1073 43.3125 52.2253 43.3125C51.295 43.2581 50.721 42.5815 50.721 41.7055ZM37.7082 39.1078C36.2583 39.1078 35.2192 40.1469 35.2192 41.6995C35.2192 43.2581 36.2583 44.2912 37.7626 44.2912C38.4875 44.2912 39.2125 44.0857 39.7864 43.6145L39.2668 42.8352C38.85 43.1494 38.3304 43.3548 37.8169 43.3548C37.1403 43.3548 36.4697 43.0406 36.3127 42.1646H39.9918C39.9918 42.0076 39.9918 41.9049 39.9918 41.7478C40.0401 40.1469 39.1037 39.1078 37.7082 39.1078ZM37.7082 40.0442C38.3848 40.0442 38.85 40.461 38.9527 41.2343H36.361C36.4637 40.5637 36.9289 40.0442 37.7082 40.0442ZM64.7247 41.7055V37.2471H63.6372V39.8388C63.2748 39.3736 62.7552 39.1138 62.0786 39.1138C60.677 39.1138 59.5896 40.2012 59.5896 41.7055C59.5896 43.2098 60.677 44.2972 62.0786 44.2972C62.8035 44.2972 63.3231 44.0374 63.6372 43.5722V44.1945H64.7247V41.7055ZM60.7314 41.7055C60.7314 40.8235 61.2993 40.0985 62.2357 40.0985C63.1177 40.0985 63.7399 40.7752 63.7399 41.7055C63.7399 42.5875 63.1177 43.3125 62.2357 43.3125C61.2993 43.2581 60.7314 42.5815 60.7314 41.7055ZM24.3268 41.7055V39.2165H23.2394V39.8388C22.8769 39.3736 22.3574 39.1138 21.6808 39.1138C20.2792 39.1138 19.1918 40.2012 19.1918 41.7055C19.1918 43.2098 20.2792 44.2972 21.6808 44.2972C22.4057 44.2972 22.9253 44.0374 23.2394 43.5722V44.1945H24.3268V41.7055ZM20.2852 41.7055C20.2852 40.8235 20.8531 40.0985 21.7895 40.0985C22.6715 40.0985 23.2938 40.7752 23.2938 41.7055C23.2938 42.5875 22.6715 43.3125 21.7895 43.3125C20.8531 43.2581 20.2852 42.5815 20.2852 41.7055Z" fill="#1D1916"/>
<path d="M31.0121 16.8749C31.0121 11.4848 33.5719 6.70082 37.4999 3.60981C34.6091 1.35982 30.9624 0 26.9847 0C17.5619 0 9.9375 7.5473 9.9375 16.8749C9.9375 26.2026 17.5619 33.7499 26.9847 33.7499C30.9624 33.7499 34.6091 32.39 37.4999 30.14C33.5664 27.0927 31.0121 22.2651 31.0121 16.8749Z" fill="#1D1916"/>
<path d="M65.0624 16.8749C65.0624 26.2026 57.4381 33.7499 48.0152 33.7499C44.0375 33.7499 40.3909 32.39 37.5 30.14C41.4777 27.0436 43.9879 22.2651 43.9879 16.8749C43.9879 11.4848 41.428 6.70082 37.5 3.60981C40.3853 1.35982 44.032 0 48.0097 0C57.4381 0 65.0624 7.59645 65.0624 16.8749Z" fill="#1D1916"/>
<mask id="path-4-outside-1_672_2171" maskUnits="userSpaceOnUse" x="28.0122" y="0.610352" width="19" height="32" fill="black">
<rect fill="white" x="28.0122" y="0.610352" width="19" height="32"/>
<path d="M37.4996 3.61035C33.5718 6.70137 31.0122 11.4852 31.0122 16.8751C31.0122 22.2652 33.5665 27.0929 37.5001 30.1402C37.4999 30.1403 37.5003 30.1401 37.5001 30.1402C41.4778 27.044 43.988 22.2655 43.988 16.8754C43.988 11.4853 41.4275 6.70136 37.4996 3.61035Z"/>
</mask>
<path d="M37.4996 3.61035C33.5718 6.70137 31.0122 11.4852 31.0122 16.8751C31.0122 22.2652 33.5665 27.0929 37.5001 30.1402C37.4999 30.1403 37.5003 30.1401 37.5001 30.1402C41.4778 27.044 43.988 22.2655 43.988 16.8754C43.988 11.4853 41.4275 6.70136 37.4996 3.61035Z" fill="#1D1916"/>
<path d="M37.4996 3.61035L38.891 1.84218L37.4995 0.747209L36.1081 1.84222L37.4996 3.61035ZM33.2622 16.8751C33.2622 12.2165 35.4719 8.06928 38.891 5.37848L36.1081 1.84222C31.6718 5.33346 28.7622 10.7538 28.7622 16.8751H33.2622ZM38.878 28.3615C35.4743 25.7246 33.2622 21.5441 33.2622 16.8751H28.7622C28.7622 22.9863 31.6588 28.4611 36.1221 31.9189L38.878 28.3615ZM38.8887 31.9106C38.8887 31.9106 38.8887 31.9106 38.8887 31.9106C38.8887 31.9106 38.8887 31.9106 38.8887 31.9106C38.8887 31.9106 38.8887 31.9106 38.8887 31.9106C38.8887 31.9106 38.8887 31.9106 38.8887 31.9106C38.8887 31.9106 38.8887 31.9106 38.8887 31.9106C38.8887 31.9106 38.8887 31.9106 38.8887 31.9106C38.8887 31.9106 38.8887 31.9106 38.8887 31.9106C38.8887 31.9106 38.8887 31.9106 38.8887 31.9106C38.8887 31.9106 38.8887 31.9106 38.8887 31.9106C38.8887 31.9106 38.8887 31.9106 38.8887 31.9106C38.8887 31.9106 38.8887 31.9106 38.8887 31.9106C38.8887 31.9106 38.8887 31.9106 38.8887 31.9106C38.8887 31.9106 38.8887 31.9106 38.8887 31.9106C38.8887 31.9106 38.8887 31.9106 38.8887 31.9106C38.8887 31.9106 38.8887 31.9106 38.8887 31.9106C38.8887 31.9106 38.8887 31.9106 38.8887 31.9106C38.8887 31.9106 38.8887 31.9106 38.8887 31.9106C38.8887 31.9106 38.8887 31.9106 38.8887 31.9106C38.8887 31.9106 38.8887 31.9106 38.8887 31.9106C38.8887 31.9106 38.8887 31.9106 38.8887 31.9106C38.8887 31.9106 38.8887 31.9106 38.8887 31.9106C38.8887 31.9106 38.8887 31.9106 38.8887 31.9106C38.8887 31.9106 38.8887 31.9106 38.8887 31.9106C38.8887 31.9106 38.8887 31.9106 38.8887 31.9106C38.8887 31.9106 38.8887 31.9106 38.8887 31.9106C38.8887 31.9106 38.8887 31.9106 38.8887 31.9106C38.8887 31.9106 38.8887 31.9106 38.8887 31.9106C38.8887 31.9106 38.8887 31.9106 38.8887 31.9106C35.7297 31.5287 36.1116 28.3697 36.1116 28.3697C36.1116 28.3697 36.1116 28.3697 36.1116 28.3697C36.1116 28.3697 36.1116 28.3697 36.1116 28.3697C36.1116 28.3697 36.1116 28.3697 36.1116 28.3697C36.1116 28.3697 36.1116 28.3697 36.1116 28.3697C36.1113 28.3699 36.1118 28.3696 36.1115 28.3698C36.1115 28.3698 36.1115 28.3698 36.1115 28.3698C36.1114 28.3699 36.1117 28.3697 36.1115 28.3698C36.1115 28.3698 36.1115 28.3698 36.1115 28.3698C36.1115 28.3698 36.1115 28.3698 36.1115 28.3698C36.1115 28.3698 36.1115 28.3698 36.1115 28.3698C36.1115 28.3698 36.1115 28.3698 36.1115 28.3698C36.1115 28.3698 36.1115 28.3698 36.1115 28.3698C36.1115 28.3698 36.1115 28.3698 36.1115 28.3698C36.1115 28.3698 36.1115 28.3698 36.1115 28.3698C36.1115 28.3698 35.7296 31.5288 38.8886 31.9106C38.8886 31.9106 38.8886 31.9106 38.8886 31.9106C38.8886 31.9106 38.8886 31.9106 38.8886 31.9106C38.8886 31.9106 38.8886 31.9106 38.8886 31.9106C38.8886 31.9106 38.8886 31.9106 38.8886 31.9106C38.8886 31.9106 38.8886 31.9106 38.8886 31.9106C38.8886 31.9106 38.8886 31.9106 38.8886 31.9106C38.8886 31.9106 38.8886 31.9106 38.8886 31.9106C38.8886 31.9106 38.8886 31.9106 38.8886 31.9106C38.8886 31.9106 38.8886 31.9106 38.8886 31.9106C38.8886 31.9106 38.8886 31.9106 38.8886 31.9106C38.8886 31.9106 38.8886 31.9106 38.8886 31.9106C38.8886 31.9106 38.8886 31.9106 38.8886 31.9106C38.8888 31.9105 38.8885 31.9107 38.8887 31.9106L36.1115 28.3698C36.1045 28.3753 36.1185 28.3643 36.1115 28.3698C36.1115 28.3698 36.1115 28.3698 36.1115 28.3698C36.1115 28.3698 36.1115 28.3698 36.1115 28.3698C36.1115 28.3698 36.1115 28.3698 36.1115 28.3698C36.1115 28.3698 36.1115 28.3698 36.1115 28.3698C36.1115 28.3698 36.1115 28.3698 36.1115 28.3698C36.1115 28.3698 36.1115 28.3698 36.1115 28.3698C36.1115 28.3698 36.1115 28.3698 36.1115 28.3698C36.1115 28.3698 36.1115 28.3698 36.1115 28.3698C36.1115 28.3698 36.1115 28.3698 36.1115 28.3698C36.1115 28.3698 36.1115 28.3698 36.1115 28.3698C36.1115 28.3698 36.1115 28.3698 36.1115 28.3698C36.1115 28.3698 36.1115 28.3698 36.1115 28.3698C36.1115 28.3698 36.1115 28.3698 36.1115 28.3698C36.1115 28.3698 36.1115 28.3698 36.1115 28.3698C36.1115 28.3698 36.1115 28.3698 36.1115 28.3698C36.1115 28.3698 36.1115 28.3698 36.1115 28.3698C36.1115 28.3698 36.1115 28.3698 36.1115 28.3698C36.1115 28.3698 36.1115 28.3698 36.1115 28.3698C36.1115 28.3698 36.1115 28.3698 36.1115 28.3698C39.2704 28.7517 38.8886 31.9106 38.8886 31.9106C38.8886 31.9106 38.8886 31.9106 38.8886 31.9106C38.8886 31.9106 38.8886 31.9106 38.8886 31.9106C38.8886 31.9106 38.8886 31.9106 38.8886 31.9106C38.8886 31.9106 38.8886 31.9106 38.8886 31.9106C38.8888 31.9105 38.8884 31.9108 38.8886 31.9106C38.8886 31.9106 38.8886 31.9106 38.8886 31.9106C38.8888 31.9105 38.8885 31.9107 38.8886 31.9106C38.8886 31.9106 38.8887 31.9106 38.8887 31.9106C38.8887 31.9106 38.8887 31.9106 38.8887 31.9106C38.8887 31.9106 38.8886 31.9106 38.8887 31.9106C38.8887 31.9105 38.8887 31.9106 38.8887 31.9106C38.8887 31.9106 38.8887 31.9106 38.8887 31.9106C38.8887 31.9106 38.8887 31.9106 38.8887 31.9106C38.8887 31.9106 38.8887 31.9106 38.8887 31.9106C38.8887 31.9106 39.2705 28.7516 36.1116 28.3697C36.1116 28.3697 36.1116 28.3697 36.1116 28.3697C36.1116 28.3697 36.1116 28.3697 36.1116 28.3697C36.1116 28.3697 36.1116 28.3697 36.1116 28.3697C36.1116 28.3697 36.1116 28.3697 36.1116 28.3697C36.1116 28.3697 36.1116 28.3697 36.1116 28.3697C36.1116 28.3697 36.1116 28.3697 36.1116 28.3697C36.1116 28.3697 36.1116 28.3697 36.1116 28.3697C36.1116 28.3697 36.1116 28.3697 36.1116 28.3697C36.1116 28.3697 36.1116 28.3697 36.1116 28.3697C36.1116 28.3697 36.1116 28.3697 36.1116 28.3697C36.1116 28.3698 36.1116 28.3698 36.1116 28.3698C36.1116 28.3698 36.1116 28.3698 36.1116 28.3698C36.1114 28.3699 36.1117 28.3697 36.1115 28.3698L38.8887 31.9106ZM38.8821 31.9157C43.3865 28.4096 46.238 22.9857 46.238 16.8754H41.738C41.738 21.5453 39.5691 25.6784 36.118 28.3647L38.8821 31.9157ZM46.238 16.8754C46.238 10.7537 43.3274 5.33329 38.891 1.84218L36.1082 5.37852C39.5277 8.06943 41.738 12.2169 41.738 16.8754H46.238Z" fill="#F2F3F4" mask="url(#path-4-outside-1_672_2171)"/>
</svg>
