<svg width="49" height="49" viewBox="0 0 49 49" fill="none" xmlns="http://www.w3.org/2000/svg">
<path d="M0 16.5057C0 10.7281 0 7.83938 1.12438 5.63266C2.11342 3.69157 3.69157 2.11342 5.63266 1.12438C7.83938 0 10.7281 0 16.5057 0H32.4943C38.2719 0 41.1606 0 43.3673 1.12438C45.3084 2.11342 46.8866 3.69157 47.8756 5.63266C49 7.83938 49 10.7281 49 16.5057V32.4943C49 38.2719 49 41.1606 47.8756 43.3673C46.8866 45.3084 45.3084 46.8866 43.3673 47.8756C41.1606 49 38.2719 49 32.4943 49H16.5057C10.7281 49 7.83938 49 5.63266 47.8756C3.69157 46.8866 2.11342 45.3084 1.12438 43.3673C0 41.1606 0 38.2719 0 32.4943V16.5057Z" fill="url(#paint0_radial_129_8945)"/>
<path fill-rule="evenodd" clip-rule="evenodd" d="M41.2702 19.6772C41.6117 19.1763 41.7939 18.6527 41.7939 18.0607C41.7939 16.6947 40.5872 15.6246 39.2667 15.6246C38.3043 15.6246 37.7779 16.1446 37.2308 16.6851C36.639 17.2699 36.0228 17.8786 34.8042 17.8786C33.1649 17.8786 31.8672 16.5353 31.8672 14.9188C31.8672 13.2568 33.1649 11.9362 34.827 11.9362C36.091 11.9362 36.6808 12.5615 37.2483 13.1631C37.7745 13.721 38.2816 14.2585 39.2894 14.2585C40.6782 14.2585 41.7939 13.1885 41.7939 11.7769C41.7939 10.5246 40.8832 9.50011 39.9725 8.77154C38.4926 7.58763 36.785 6.92737 34.8953 6.92737C30.4556 6.92737 26.8355 10.4791 26.8355 14.9188C26.8355 19.3585 30.4784 22.8647 34.8725 22.8647C37.2403 22.8647 39.9269 21.6808 41.2702 19.6772ZM21.5809 41.2991C22.9066 41.2991 23.9671 40.2827 23.9671 38.935C23.9671 38.6698 23.945 38.3826 23.9008 38.1175L22.1996 28.6169C22.0891 27.9983 21.9344 27.4459 21.4484 27.004C21.0065 26.6063 20.3657 26.3412 19.7692 26.3412C18.8854 26.3412 18.0016 26.8493 17.626 27.6447L15.4067 32.3633C15.3155 32.5573 15.0384 32.5542 14.9515 32.3582L13.0083 27.9762C12.5885 27.004 11.6164 26.3412 10.5558 26.3412C9.18599 26.3412 8.39059 27.3575 8.16965 28.6169L6.51257 38.0512C6.46838 38.25 6.44629 38.4489 6.44629 38.6477C6.44629 40.1281 7.37425 41.2991 8.92086 41.2991H11.8309H15.1736H21.4484H21.5809ZM20.1505 22.6976C21.5333 22.6976 22.6857 21.5913 22.6857 20.1854C22.6857 19.7706 22.5935 19.3557 22.4091 18.9639L17.5461 8.63857C17.1082 7.69362 16.2324 7.09438 15.1722 7.09438C14.135 7.09438 13.2823 7.69362 12.8444 8.61552L8.02743 18.8256C7.82 19.2405 7.72781 19.7014 7.72781 20.1624C7.72781 21.5683 8.81105 22.6976 10.24 22.6976C11.0943 22.6976 12.5089 22.3763 13.6167 21.8569C14.3271 21.5238 16.0342 21.5094 16.7439 21.8438C17.8539 22.3668 19.2668 22.6976 20.1505 22.6976ZM34.8146 41.5569C39.0876 41.5569 42.5515 38.093 42.5515 33.8201C42.5515 29.5471 39.0876 26.0832 34.8146 26.0832C30.5417 26.0832 27.0778 29.5471 27.0778 33.8201C27.0778 38.093 30.5417 41.5569 34.8146 41.5569Z" fill="url(#paint1_linear_129_8945)"/>
<g filter="url(#filter0_d_129_8945)">
<path fill-rule="evenodd" clip-rule="evenodd" d="M34.8008 38.5845C35.5358 38.5845 36.2192 38.4169 36.851 38.0816C37.4828 37.7464 37.9858 37.2886 38.3597 36.7083C38.4629 36.5536 38.4758 36.4021 38.3984 36.2538C38.321 36.1055 38.1895 36.0314 38.0038 36.0314C37.9316 36.0314 37.8504 36.0572 37.7601 36.1087C37.6698 36.1603 37.5989 36.2183 37.5473 36.2828C37.2379 36.7212 36.8414 37.0565 36.3578 37.2886C35.8743 37.5207 35.3585 37.6368 34.8105 37.6368C34.2624 37.6368 33.7434 37.5239 33.2534 37.2983C32.7634 37.0726 32.3701 36.7406 32.0735 36.3022C32.0274 36.2248 31.961 36.1603 31.8745 36.1087C31.788 36.0572 31.6996 36.0314 31.6093 36.0314C31.4417 36.0314 31.316 36.1055 31.2322 36.2538C31.1483 36.4021 31.1709 36.573 31.2999 36.7664C31.648 37.308 32.1348 37.7464 32.7601 38.0816C33.3856 38.4169 34.0657 38.5845 34.8008 38.5845Z" fill="#2F3941"/>
</g>
<defs>
<filter id="filter0_d_129_8945" x="30.151" y="35.5156" width="9.32878" height="4.61632" filterUnits="userSpaceOnUse" color-interpolation-filters="sRGB">
<feFlood flood-opacity="0" result="BackgroundImageFix"/>
<feColorMatrix in="SourceAlpha" type="matrix" values="0 0 0 0 0 0 0 0 0 0 0 0 0 0 0 0 0 0 127 0" result="hardAlpha"/>
<feOffset dy="0.51579"/>
<feGaussianBlur stdDeviation="0.51579"/>
<feComposite in2="hardAlpha" operator="out"/>
<feColorMatrix type="matrix" values="0 0 0 0 0 0 0 0 0 0 0 0 0 0 0 0 0 0 0.25 0"/>
<feBlend mode="normal" in2="BackgroundImageFix" result="effect1_dropShadow_129_8945"/>
<feBlend mode="normal" in="SourceGraphic" in2="effect1_dropShadow_129_8945" result="shape"/>
</filter>
<radialGradient id="paint0_radial_129_8945" cx="0" cy="0" r="1" gradientUnits="userSpaceOnUse" gradientTransform="translate(24.5 -16.4396) rotate(90) scale(49)">
<stop stop-color="#122F33"/>
<stop offset="1" stop-color="#1F1F1F"/>
</radialGradient>
<linearGradient id="paint1_linear_129_8945" x1="42.5515" y1="40.4622" x2="5.04473" y2="6.90359" gradientUnits="userSpaceOnUse">
<stop stop-color="#0774C4"/>
<stop offset="1" stop-color="#47DC9B"/>
</linearGradient>
</defs>
</svg>
