<svg width="27" height="28" viewBox="0 0 27 28" fill="none" xmlns="http://www.w3.org/2000/svg">
<path d="M7.20829 9.14677L7.4283 6.84665C9.12172 7.26001 10.6751 7.54669 12.0885 7.7067C13.4886 7.88004 14.822 7.94671 16.0887 7.90671C17.3421 7.85337 18.6155 7.7267 19.9089 7.52669L20.0289 7.64669C19.8156 8.92676 19.6889 10.2002 19.6489 11.4669C19.6089 12.7336 19.6756 14.067 19.8489 15.4671C19.9956 16.8672 20.2823 18.4206 20.709 20.1273L18.4089 20.3473C18.1155 18.9606 17.9155 17.6539 17.8088 16.4271C17.6755 15.2004 17.6288 14.0604 17.6688 13.007C17.7088 11.9536 17.8288 11.0069 18.0288 10.1668C18.2289 9.32678 18.5089 8.60674 18.8689 8.00671L19.5489 8.68675C18.9489 9.04676 18.2289 9.32678 17.3888 9.52679C16.5488 9.7268 15.6021 9.84681 14.5487 9.88681C13.4953 9.92681 12.3619 9.88681 11.1485 9.7668C9.90843 9.6468 8.59503 9.44012 7.20829 9.14677ZM5.84822 20.1073L12.9486 13.007C13.7886 12.1669 14.542 11.4536 15.2087 10.8669C15.8754 10.2802 16.4888 9.76013 17.0488 9.30678L18.8489 8.70675L18.2489 10.5068C17.7955 11.0669 17.2755 11.6802 16.6888 12.3469C16.1021 13.0136 15.3887 13.767 14.5487 14.607L7.4483 21.7074L5.84822 20.1073Z" fill="white"/>
</svg>
