<svg width="49" height="49" viewBox="0 0 49 49" fill="none" xmlns="http://www.w3.org/2000/svg">
<rect x="0.137407" y="0.137407" width="48.7252" height="48.7252" rx="7.37415" fill="white" stroke="#E3E5E7" stroke-width="0.274813"/>
<path fill-rule="evenodd" clip-rule="evenodd" d="M24.4906 44.5756C13.3983 44.5756 4.40625 35.5839 4.40625 24.4909C4.40625 13.3985 13.3983 4.40648 24.4906 4.40648C35.583 4.40648 44.5753 13.3985 44.5753 24.4909C44.5753 35.5839 35.583 44.5756 24.4906 44.5756M24.4907 2.89502C12.5633 2.89502 2.89453 12.5637 2.89453 24.4912C2.89453 36.4189 12.5633 46.0876 24.4907 46.0876C36.4184 46.0876 46.0871 36.4189 46.0871 24.4912C46.0871 12.5637 36.4184 2.89502 24.4907 2.89502" fill="#009C57"/>
<path fill-rule="evenodd" clip-rule="evenodd" d="M34.9605 23.0608L25.6332 23.0315L25.6691 11.5347C25.6713 10.9025 25.1557 10.3835 24.523 10.3816C23.8906 10.3797 23.3715 10.8952 23.3696 11.5275L23.3334 23.0246L14.0089 22.9953C13.2021 22.9928 12.5398 23.6506 12.5376 24.4572L12.5049 34.8871C12.5021 35.694 13.1603 36.3559 13.9671 36.3584L34.9186 36.4242C35.7257 36.4267 36.3877 35.7686 36.3903 34.962L36.423 24.5321C36.4252 23.7252 35.7673 23.0636 34.9605 23.0608" fill="#FBBA16"/>
<path fill-rule="evenodd" clip-rule="evenodd" d="M38.2967 13.8792C38.6719 14.1853 38.5475 14.3276 38.3097 14.657C37.5285 15.7387 36.1662 17.3239 36.0619 18.2658C35.9441 19.3289 36.2752 20.8943 35.0675 21.9794C34.5673 21.9494 28.666 21.9592 28.666 21.9592C29.8447 20.4642 31.2839 17.789 33.5527 17.1968C34.9563 16.8307 35.94 15.207 36.8412 13.9035C37.3071 13.2292 37.6586 13.3582 38.2967 13.8792" fill="#A71E59"/>
<path fill-rule="evenodd" clip-rule="evenodd" d="M32.1579 16.5705C31.2068 17.1576 30.6286 17.802 30.0897 18.4622C28.8689 19.9589 27.5503 21.8937 27.5503 21.8937L26.9434 21.8915C27.777 18.969 26.4446 16.9574 27.7428 16.1736C28.614 15.6474 29.0144 16.4745 30.2462 15.8629C31.7914 15.0957 32.1579 16.5705 32.1579 16.5705" fill="#BBD43A"/>
<path fill-rule="evenodd" clip-rule="evenodd" d="M39.0956 19.2405C39.3028 19.3482 39.3956 19.6063 39.3495 19.8331C39.17 20.7132 40.4727 21.4328 39.5189 22.0975C38.5714 22.7579 38.8171 23.1892 38.2623 23.1873C37.5737 23.1854 37.9248 22.3622 36.3809 21.9128C36.7149 21.3289 36.9013 21.0933 36.9732 19.3516C37.6624 18.9896 38.5358 18.95 39.0956 19.2405" fill="#BBD43A"/>
<path fill-rule="evenodd" clip-rule="evenodd" d="M14.9625 13.8171C16.4719 12.8691 16.2064 15.0655 16.9223 14.6369C17.3042 14.4081 17.6679 14.5959 17.7117 14.8869C17.8203 15.6016 16.9113 16.8623 16.9433 17.6468C16.9452 17.6885 16.9129 17.7206 16.8719 17.7156C16.7192 17.6973 16.6065 17.6982 16.0537 17.8361C15.5604 17.9592 14.9691 18.3581 14.9691 18.3581C14.2385 18.1037 13.5656 17.6938 12.8194 17.2788C12.2688 16.9727 12.1332 16.738 12.1292 16.288C12.1245 15.7392 12.5542 15.6313 12.388 15.2722C12.1586 14.7751 11.9285 14.1901 12.1943 13.7104C12.3417 13.4741 12.6444 13.215 12.9417 13.2276C13.9681 13.2068 14.1115 14.3517 14.9625 13.8171" fill="#BBD43A"/>
<path fill-rule="evenodd" clip-rule="evenodd" d="M11.0228 15.82C11.0909 15.9582 11.1231 16.0275 11.0395 16.1789C10.7619 16.6796 10.9836 17.2181 11.348 17.7188C11.9512 18.5461 13.6939 19.0263 14.4877 19.2806L14.2665 19.9614C12.4721 19.4934 11.348 19.6417 9.99556 19.9665C9.99556 19.9665 9.23904 20.2871 8.76834 19.8627C8.29544 19.4357 8.52069 18.9047 8.77307 18.6909C8.77307 18.6909 7.71275 18.0319 8.18975 17.0686C8.56265 16.315 9.28099 16.4266 9.28099 16.4266C9.28099 16.4266 9.11568 15.5949 9.88041 15.2134C10.3429 14.983 10.7436 15.2714 10.7436 15.2714C10.8647 15.5385 10.9518 15.6767 11.0228 15.82" fill="#BBD43A"/>
<path fill-rule="evenodd" clip-rule="evenodd" d="M14.0142 21.1149L14.0119 21.8729C12.3119 21.8123 11.548 22.3984 11.1096 23.6988C10.6312 25.4334 7.76875 24.6939 8.74108 22.3569C9.48405 20.7106 12.1587 20.5395 14.0142 21.1149" fill="#BBD43A"/>
<path fill-rule="evenodd" clip-rule="evenodd" d="M22.0986 18.3297C21.4576 18.2961 20.799 18.4522 20.3373 18.7889C18.9777 17.9324 17.9661 18.1453 18.0732 17.9876C18.6545 17.1302 20.4702 16.4056 22.1115 17.1735C22.1115 17.1735 22.1288 18.0662 22.0986 18.3297" fill="#F05C2B"/>
<path fill-rule="evenodd" clip-rule="evenodd" d="M19.4672 19.4037C19.3779 19.4927 19.2945 19.5777 19.217 19.6605C18.3971 20.5397 18.3165 21.8072 18.3165 21.8072L15.1467 21.7972C15.0712 21.3632 15.0721 20.8685 15.1499 20.5296C15.4187 19.3596 16.2021 18.7844 17.4806 18.7891C18.184 18.7919 18.9045 18.9788 19.4594 19.3055C19.4934 19.3256 19.4949 19.3757 19.4672 19.4037" fill="#F05C2B"/>
<path fill-rule="evenodd" clip-rule="evenodd" d="M22.1071 21.8503L19.4434 21.8422C19.5228 20.4312 20.4129 19.5997 21.0933 19.3954C21.3319 19.3237 21.741 19.2597 22.1153 19.2635L22.1071 21.8503Z" fill="#F05C2B"/>
</svg>
