<svg width="20" height="20" viewBox="0 0 20 20" fill="none" xmlns="http://www.w3.org/2000/svg">
<path d="M17.92 9.29305L19.3909 11.0751C17.9011 11.9802 16.6 12.8759 15.4874 13.7622C14.3749 14.6296 13.3849 15.5253 12.5174 16.4493C11.6689 17.3733 10.858 18.3633 10.0849 19.4193H9.91515C9.16086 18.3633 8.35 17.3733 7.48257 16.4493C6.61515 15.5253 5.62515 14.6296 4.51257 13.7622C3.41886 12.8759 2.11772 11.9802 0.609146 11.0751L2.08 9.29305C3.268 10.0662 4.33343 10.8488 5.27629 11.6408C6.238 12.4139 7.07715 13.1871 7.79372 13.9602C8.51029 14.7333 9.09486 15.4876 9.54743 16.2231C10 16.9585 10.3111 17.6656 10.4809 18.3445H9.51915C9.68886 17.6656 10 16.9585 10.4526 16.2231C10.9051 15.4876 11.4897 14.7333 12.2063 13.9602C12.9229 13.1871 13.7526 12.4139 14.6954 11.6408C15.6571 10.8488 16.732 10.0662 17.92 9.29305ZM11.1314 0.581055L11.1314 10.6225C11.1314 11.8105 11.1031 12.8476 11.0466 13.7339C10.99 14.6202 10.924 15.4216 10.8486 16.1382L10 17.8353L9.15143 16.1382C9.076 15.4216 9.01 14.6202 8.95343 13.7339C8.89686 12.8476 8.86857 11.8105 8.86857 10.6225L8.86857 0.581055L11.1314 0.581055Z" fill="black"/>
</svg>
