<svg width="60" height="60" viewBox="0 0 60 60" fill="none" xmlns="http://www.w3.org/2000/svg">
<rect width="60" height="60" fill="#FAF7EE"/>
<path d="M30.7874 10.0049C21.5755 10.0306 15.2635 15.0544 12.5035 21.8026C11.4524 24.3505 10.9087 27.1507 10.9087 30.0126C10.9087 40.4514 18.1011 49.9689 30.7925 50.0049H30.8547C39.0568 49.9843 44.9649 46.0002 48.1132 40.3639L47.9165 40.2507C44.3746 45.8664 38.337 49.2225 31.4243 49.0217C30.021 48.9806 28.5763 48.7953 27.1316 48.4658L27.0747 48.4555C25.252 48.0334 23.538 47.4055 21.9691 46.5922C21.9069 46.5665 21.8396 46.5356 21.7775 46.4995C19.5975 45.2178 17.8163 43.5038 16.4492 41.5015C16.3767 41.3985 16.3612 41.2801 16.3819 41.1669C16.4182 41.0434 16.5062 40.9301 16.6357 40.8683L16.936 40.7242C17.0913 40.6522 17.1794 40.508 17.1949 40.3536C17.2156 40.2558 17.2052 40.1477 17.1586 40.0499C15.7088 37.0593 14.9528 33.5694 14.9528 29.9714C14.9528 27.5882 15.2842 25.2565 15.9263 23.0843C16.5735 20.9121 17.5315 18.8995 18.7846 17.17C21.4823 13.4227 25.5471 10.9777 30.7977 10.9777H30.8598C32.2528 10.9777 33.5628 11.1527 34.7745 11.477C34.8004 11.477 34.8366 11.4822 34.8625 11.4976C38.2593 12.2697 41.0659 13.8963 43.2303 16.0685C43.2665 16.1096 43.308 16.1457 43.3442 16.1868C43.4737 16.3155 43.5979 16.4494 43.717 16.5832C43.7895 16.6655 43.8672 16.7479 43.9397 16.8303C44.0225 16.9229 44.1002 17.0156 44.1831 17.1134C44.2866 17.2369 44.3902 17.3656 44.4886 17.4943C44.53 17.5509 44.5766 17.6024 44.618 17.659C44.7475 17.8237 44.8717 17.9936 44.996 18.1686C45.0685 18.2715 45.1462 18.3693 45.2135 18.4774C45.374 18.7142 45.2808 19.0385 45.0219 19.162L44.7216 19.3061C44.4886 19.4194 44.3902 19.6973 44.5041 19.929C44.908 20.7628 45.2601 21.6379 45.5552 22.5438C45.9384 23.7174 46.6996 26.9139 45.0737 30.6663C44.4109 32.1951 43.4063 33.5076 42.262 34.568C40.3927 36.3027 38.0108 37.2961 35.2819 37.1056C34.8366 37.0645 34.3861 36.9975 33.9356 36.91H33.8994C33.0346 36.7299 32.2269 36.4571 31.5123 36.1019V35.6798V14.9669C31.4087 13.6904 30.2592 13.5874 30.2592 13.5874H32.2735V12.9595H27.1523V13.3661L27.4475 13.4021C28.4417 13.4742 29.1459 14.3235 29.1459 15.4559V44.3737C29.1459 45.5113 28.4417 46.3554 27.4475 46.4275L27.1523 46.4687V46.8701H33.5007V46.4687L33.2055 46.4275C32.2061 46.3554 31.5071 45.5113 31.5071 44.3737V37.7594C31.445 37.0181 31.0359 36.6733 30.7045 36.5137C31.3414 36.7968 32.0146 37.0439 32.7343 37.2446C32.7343 37.2446 32.7343 37.2446 32.7343 37.2498C33.0968 37.3527 33.4644 37.4454 33.8528 37.5226H33.889C41.796 39.0822 47.466 34.0481 48.7812 27.5522C49.6874 23.0534 48.2634 18.5186 44.8873 15.4353C44.8769 15.425 44.8666 15.4147 44.8614 15.4096C44.7785 15.3272 44.6957 15.25 44.6077 15.1677C44.5869 15.1471 44.5611 15.1265 44.5403 15.1059C41.2108 11.9969 36.5972 10.0306 30.8547 10.0203H30.7925L30.7874 10.0049Z" fill="#8B6F4C"/>
</svg>
