<svg width="60" height="60" viewBox="0 0 60 60" fill="none" xmlns="http://www.w3.org/2000/svg">
<rect width="60" height="60" fill="white"/>
<path d="M10 28.8858L28.9307 10C23.9914 10.2508 19.321 12.3211 15.8238 15.8099C12.3266 19.2988 10.2514 23.9581 10 28.8858" fill="#185EE5"/>
<path d="M49.9999 30C49.9999 30 49.9999 29.83 49.9999 29.7544H33.9466L30.1604 26.1095H49.6023C49.2564 24.3363 48.6638 22.6199 47.8418 21.0103H30.6148L34.2684 17.3654H45.4754C43.7743 15.2974 41.6761 13.5893 39.304 12.3417H39.1715C37.5378 11.4772 35.7923 10.8417 33.9845 10.4531L10.3589 34.0792C10.7303 35.93 11.3679 37.7174 12.252 39.3861C13.842 42.3982 16.1777 44.9545 19.0372 46.8123C21.8967 48.67 25.1848 49.7673 28.5892 49.9999L15.0916 36.5344L17.8555 33.7959L33.7951 49.6789C35.6643 49.3156 37.4695 48.6792 39.1526 47.7903L21.4712 30.1699L24.2351 27.4125L42.4844 45.6184C43.8275 44.5652 45.0188 43.3323 46.0244 41.9546L38.9632 34.8913H49.3752C49.7802 33.3116 49.9837 31.6871 49.9809 30.0566" fill="#185EE5"/>
</svg>
