<svg width="60" height="60" viewBox="0 0 60 60" fill="none" xmlns="http://www.w3.org/2000/svg">
<rect width="60" height="60" fill="#252320"/>
<path fill-rule="evenodd" clip-rule="evenodd" d="M18.4406 24.7652C18.4406 19.9236 22.3642 16 27.2058 16C30.4879 16 33.3491 17.8031 34.8518 20.4731C34.9609 20.4702 35.0704 20.4687 35.1803 20.4687C41.808 20.4687 47.1805 25.8412 47.1805 32.4689L47.1804 32.4689V43.75H44.8493V32.4689L44.8493 32.4689C44.8493 27.3218 40.8279 23.1143 35.7555 22.8167C35.8977 23.4433 35.9728 24.0955 35.9728 24.7652C35.9728 29.6069 32.0493 33.5305 27.2076 33.5305C26.6279 33.5305 26.0606 33.4738 25.5113 33.366V43.75H23.1801V32.4689C23.1801 26.8378 27.0584 22.1128 32.2896 20.8191C31.1121 19.3051 29.2728 18.3312 27.2058 18.3312C23.6516 18.3312 20.7718 21.2111 20.7718 24.7652V39.3817H20.7718C20.7718 39.3867 20.7718 39.3917 20.7718 39.3967V39.5126H20.7696C20.7006 41.5985 18.9885 43.2676 16.8859 43.2676C14.7394 43.2676 13 41.5282 13 39.3817C13 38.7681 13.1435 38.1861 13.3969 37.6691L15.4902 38.695C15.3885 38.9025 15.3312 39.1346 15.3312 39.3817C15.3312 40.2407 16.0269 40.9364 16.8859 40.9364C17.7417 40.9364 18.4355 40.2458 18.4406 39.3912V24.7652ZM25.6217 31.0025C26.2389 26.9461 29.3763 23.7181 33.3867 22.9659C33.5527 23.5369 33.6417 24.1407 33.6417 24.7652C33.6417 28.3194 30.7618 31.1993 27.2076 31.1993C26.66 31.1993 26.1287 31.1308 25.6217 31.0025ZM35.1803 40.0165C33.1181 40.0165 31.4468 41.6878 31.4468 43.75H29.1156C29.1156 40.4003 31.8306 37.6853 35.1803 37.6853C38.53 37.6853 41.2449 40.4003 41.2449 43.75H38.9138C38.9138 41.6878 37.2425 40.0165 35.1803 40.0165Z" fill="#F6F5F0"/>
</svg>
