<svg width="60" height="60" viewBox="0 0 60 60" fill="none" xmlns="http://www.w3.org/2000/svg">
<rect width="60" height="60" fill="url(#paint0_linear_672_1927)"/>
<path d="M24.2849 36.1768C24.6712 36.1768 24.9844 36.4899 24.9844 36.8762L24.9844 46.6691C24.9844 47.0554 24.6712 47.3686 24.2849 47.3686L14.492 47.3686C14.1057 47.3686 13.7925 47.0554 13.7925 46.6691L13.7926 36.8762C13.7926 36.4899 14.1057 36.1768 14.492 36.1768L24.2849 36.1768Z" fill="white"/>
<path d="M47.3679 36.1766V46.6689C47.3679 47.0553 47.0548 47.3684 46.6685 47.3684H36.8756C36.4893 47.3684 36.1761 47.0553 36.1761 46.6689V42.472V24.9848L47.3679 36.1766Z" fill="white"/>
<path d="M36.1761 24.9848L16.1292 24.9432C16.0548 24.9701 15.9746 24.9848 15.8909 24.9848H14.492C14.1057 24.9848 13.7925 24.6716 13.7925 24.2853L13.7925 14.4925C13.7925 14.1061 14.1057 13.793 14.492 13.793L24.9843 13.793L36.1761 24.9848Z" fill="white"/>
<defs>
<linearGradient id="paint0_linear_672_1927" x1="30" y1="22.8947" x2="100.263" y2="120.789" gradientUnits="userSpaceOnUse">
<stop offset="0.231352" stop-color="#565FFE"/>
<stop offset="1" stop-color="#F1F2FF"/>
</linearGradient>
</defs>
</svg>
